<?xml version="1.0" encoding="utf-8"?>
<!-- Generator: Adobe Illustrator 16.0.0, SVG Export Plug-In . SVG Version: 6.00 Build 0)  -->
<!DOCTYPE svg PUBLIC "-//W3C//DTD SVG 1.1//EN" "http://www.w3.org/Graphics/SVG/1.1/DTD/svg11.dtd">
<svg version="1.1"
	 id="svg2" xmlns:dc="http://purl.org/dc/elements/1.1/" xmlns:cc="http://creativecommons.org/ns#" xmlns:rdf="http://www.w3.org/1999/02/22-rdf-syntax-ns#" xmlns:svg="http://www.w3.org/2000/svg" xmlns:sodipodi="http://sodipodi.sourceforge.net/DTD/sodipodi-0.dtd" xmlns:inkscape="http://www.inkscape.org/namespaces/inkscape" inkscape:output_extension="org.inkscape.output.svg.inkscape" sodipodi:docname="city.svg" inkscape:version="0.45+devel" sodipodi:version="0.32"
	 xmlns="http://www.w3.org/2000/svg" xmlns:xlink="http://www.w3.org/1999/xlink" x="0px" y="0px" width="121.139px"
	 height="97.879px" viewBox="2.844 17.215 121.139 97.879" enable-background="new 2.844 17.215 121.139 97.879"
	 xml:space="preserve">
<filter  id="filter5780" inkscape:collect="always">
	<feGaussianBlur  stdDeviation="0.30547013" id="feGaussianBlur5782" inkscape:collect="always"></feGaussianBlur>
</filter>
<filter  id="filter5766" inkscape:collect="always">
	<feGaussianBlur  stdDeviation="0.22566261" id="feGaussianBlur5768" inkscape:collect="always"></feGaussianBlur>
</filter>
<filter  id="filter5754" inkscape:collect="always">
	<feGaussianBlur  stdDeviation="0.12475658" id="feGaussianBlur5756" inkscape:collect="always"></feGaussianBlur>
</filter>
<filter  id="filter5730" inkscape:collect="always">
	<feGaussianBlur  stdDeviation="0.1256739" id="feGaussianBlur5732" inkscape:collect="always"></feGaussianBlur>
</filter>
<filter  id="filter5713" inkscape:collect="always">
	<feGaussianBlur  stdDeviation="0.099988717" id="feGaussianBlur5715" inkscape:collect="always"></feGaussianBlur>
</filter>
<filter  id="filter5693" inkscape:collect="always">
	<feGaussianBlur  stdDeviation="0.23208392" id="feGaussianBlur5695" inkscape:collect="always"></feGaussianBlur>
</filter>
<filter  id="filter5677" inkscape:collect="always">
	<feGaussianBlur  stdDeviation="0.61919621" id="feGaussianBlur5679" inkscape:collect="always"></feGaussianBlur>
</filter>
<filter  id="filter5644" inkscape:collect="always">
	<feGaussianBlur  stdDeviation="1.4027231" id="feGaussianBlur5646" inkscape:collect="always"></feGaussianBlur>
</filter>
<sodipodi:namedview  showguides="true" width="744.09px" showgrid="false" inkscape:cy="64" inkscape:cx="64" inkscape:zoom="1" objecttolerance="10" guidetolerance="10" gridtolerance="10000" borderopacity="1.0" bordercolor="#666666" pagecolor="#ffffff" id="base" inkscape:guide-bbox="true" inkscape:window-y="24" inkscape:window-x="425" inkscape:window-height="975" inkscape:window-width="1248" inkscape:current-layer="layer2" inkscape:document-units="px" inkscape:pageshadow="2" inkscape:pageopacity="0.0">
	</sodipodi:namedview>
<g id="layer2" inkscape:label="colors" inkscape:groupmode="layer">
	<g id="path5634" filter="url(#filter5644)">
		<polygon opacity="0.6667" points="19.814,98.17 11.683,82.596 2.844,60.983 23.35,47.315 18.4,38.098 20.521,28.881 
			26.532,33.013 30.774,41.594 43.149,38.416 110.678,70.518 43.856,100.076 		"/>
	</g>
	
		<linearGradient id="path4547_1_" gradientUnits="userSpaceOnUse" x1="36.3892" y1="5.4185" x2="77.5562" y2="57.1368" gradientTransform="matrix(1 0 0 -1 15.1328 104.8145)">
		<stop  offset="0" style="stop-color:#4F3E2A"/>
		<stop  offset="1" style="stop-color:#72593C"/>
	</linearGradient>
	<path id="path4547" sodipodi:nodetypes="ccccccccc" fill="url(#path4547_1_)" d="M18.841,70.076l24.735-24.389l42.032-2.249
		l32,17.297l3.632,21.449l-25.772,26.811l-43.416,0.691L21.781,90.834L18.841,70.076z"/>
	
		<linearGradient id="path2665_1_" gradientUnits="userSpaceOnUse" x1="12.6455" y1="17.9868" x2="32.7969" y2="-4.7159" gradientTransform="matrix(1 0 0 -1 15.1328 104.8145)">
		<stop  offset="0" style="stop-color:#B1B1B1"/>
		<stop  offset="1" style="stop-color:#E4E4E4"/>
	</linearGradient>
	<path id="path2665" fill="url(#path2665_1_)" d="M20.052,78.293l3.719,2.162l-0.043,1.081l3.113,1.558l0.086-1.168l2.854,1.34
		l-0.043,1.385l2.681,1.816l0.129-1.645l3.07,1.601l-0.086,1.167l3.114,1.688l0.129-1.125l2.854,1.428l0.086,1.514l2.984,1.21
		l0.043-1.081l2.897,1.384l-0.043,1.47l3.546,1.514v-1.34l2.162,1.037l0.043,19.763l-33.47-16.821L20.052,78.293z"/>
	
		<linearGradient id="path2669_1_" gradientUnits="userSpaceOnUse" x1="44.7637" y1="-9.0942" x2="70.5377" y2="8.2902" gradientTransform="matrix(1 0 0 -1 15.1328 104.8145)">
		<stop  offset="0" style="stop-color:#B1B1B1"/>
		<stop  offset="1" style="stop-color:#E4E4E4"/>
	</linearGradient>
	<path id="path2669" fill="url(#path2669_1_)" d="M53.349,95.158l3.459-0.043v1.47l4.497-0.303v-1.427l3.719-0.043l0.044,1.729
		l3.935-0.475v-1.341l3.632-0.347l0.217,1.342l3.59-0.217l-0.217-1.34l3.893-0.088l0.172,1.385l3.113-0.346l0.131-1.471l3.502-0.217
		l0.26,1.601l3.893-0.519l-0.174-1.471l5.146-0.26l0.043,19.806l-42.897,2.509L53.349,95.158z"/>
	
		<linearGradient id="path2677_1_" gradientUnits="userSpaceOnUse" x1="100.4863" y1="14.3486" x2="102.1299" y2="14.3486" gradientTransform="matrix(1 0 0 -1 15.1328 104.8145)">
		<stop  offset="0" style="stop-color:#B1B1B1"/>
		<stop  offset="1" style="stop-color:#E4E4E4"/>
	</linearGradient>
	<path id="path2677" fill="url(#path2677_1_)" d="M115.619,85.773l1.6-1.34l0.044,12.064l-1.471-0.432L115.619,85.773z"/>
	
		<linearGradient id="path2685_1_" gradientUnits="userSpaceOnUse" x1="92.4893" y1="3.6455" x2="98.2403" y2="14.3693" gradientTransform="matrix(1 0 0 -1 15.1328 104.8145)">
		<stop  offset="0" style="stop-color:#6A3C1D"/>
		<stop  offset="1" style="stop-color:#8F5127"/>
	</linearGradient>
	<path id="path2685" fill="url(#path2685_1_)" d="M106.322,93.212l9.383-7.481l0.174,10.422l-9.557,7.654V93.212z"/>
	
		<linearGradient id="path2700_1_" gradientUnits="userSpaceOnUse" x1="31.9775" y1="58.4536" x2="62.6796" y2="75.2316" gradientTransform="matrix(1 0 0 -1 15.1328 104.8145)">
		<stop  offset="0" style="stop-color:#B1B1B1"/>
		<stop  offset="1" style="stop-color:#E4E4E4"/>
	</linearGradient>
	<path id="path2700" fill="url(#path2700_1_)" d="M85.576,28.965l-3.469,0.219l-0.344,1.469l-4.281,0.344l0.094-1.344l-3.875,0.375
		l-0.031,1.688l-4.031,0.063l0.156-1.344l-3.594,0.219l-0.313,1.375l-1.468,0.031l0.031,16.906l9.531-0.688V42.84l3.094-5.813
		l3.031-0.625l5.281,2.031L85.576,28.965z M53.077,31.496l-1.469,0.094l-0.25,1.594h-3.875l0.188-1.344l-3.969-0.219l-0.219,0.531
		l0.063,17.938l9.406-0.563L53.077,31.496z"/>
	
		<linearGradient id="path2707_1_" gradientUnits="userSpaceOnUse" x1="9.1992" y1="38.6055" x2="20.3125" y2="64.5509" gradientTransform="matrix(1 0 0 -1 15.1328 104.8145)">
		<stop  offset="0" style="stop-color:#B1B1B1"/>
		<stop  offset="1" style="stop-color:#E4E4E4"/>
	</linearGradient>
	<path id="path2707" fill="url(#path2707_1_)" d="M43.619,31.763l-2.335,1.168l0.173,1.297l-2.465,2.378l-0.303-1.729l-1.859,1.6
		l0.13,1.6l-2.681,2.162l-0.216-1.513l-2.335,1.6l0.129,1.34l-2.292,1.859l-0.216-1.21l-2.292,1.902l0.086,1.557l-2.465,2.378
		l-0.216-1.513l-2.595,1.729l0.26,1.514l-2.811,2.421l-0.043-1.427l-1.341,0.951l0.389,3.2l-0.173,1.038l1.167,5.103l-0.086,2.076
		l0.692,2.205l0.346,4.844l0.519,0.303l0.26,1.6l9.902-9.643v-9.644l5.276-12.194l0.562,0.476l5.795,10.119l1.21-1.21L43.619,31.763
		z"/>
	
		<linearGradient id="path2711_1_" gradientUnits="userSpaceOnUse" x1="1.9844" y1="41.9668" x2="3.1952" y2="16.8852" gradientTransform="matrix(1 0 0 -1 15.1328 104.8145)">
		<stop  offset="0" style="stop-color:#B1B1B1"/>
		<stop  offset="1" style="stop-color:#E4E4E4"/>
	</linearGradient>
	<path id="path2711" fill="url(#path2711_1_)" d="M15.468,52.044l0.605,2.897l-0.086,1.859l0.433,3.027l0.302-0.129l0.39,1.816
		l0.043,2.076l0.389,2.378l0.26-0.086l0.432,1.383l-0.346,1.73l0.173,2.119l0.346-0.26l0.563,1.773l-0.26,1.557l0.389,2.291
		l0.433-0.389l0.433,2.508l-0.043,19.33l-4.454-25.989V52.044z"/>
	
		<linearGradient id="path2715_1_" gradientUnits="userSpaceOnUse" x1="20.1182" y1="19.0186" x2="20.4717" y2="19.6815" gradientTransform="matrix(1 0 0 -1 15.1328 104.8145)">
		<stop  offset="0" style="stop-color:#B1B1B1"/>
		<stop  offset="1" style="stop-color:#E4E4E4"/>
	</linearGradient>
	<path id="path2715" fill="url(#path2715_1_)" d="M19.46,75.947l1.768-0.221l0.619,2.032l3.138,1.9l0.088,1.193l2.077,0.751
		l0.707-0.662l3.138,1.635v1.414l1.812,0.574l1.326-0.662l2.961,1.812l-0.044,1.414l1.724,0.707l1.282-0.928l3.138,1.812
		l-0.132,1.503l1.546,0.618l1.503-1.061l2.917,1.592l-0.132,1.59l1.944,0.973l0.265,1.592l-3.403-1.547l-0.044-1.414L44.74,91.15
		l-0.044,1.192l-2.961-1.414l-0.044-1.282l-2.873-1.59l-0.133,1.281l-3.226-1.68l0.132-1.326l-3.049-1.502l-0.177,1.68l-2.651-1.768
		v-1.504l-2.74-1.281l-0.088,1.193l-3.049-1.768l-0.177-1.017l-3.624-1.944L19.46,75.947z"/>
	
		<linearGradient id="path2719_1_" gradientUnits="userSpaceOnUse" x1="55.814" y1="10.75" x2="55.814" y2="12.0319" gradientTransform="matrix(1 0 0 -1 15.1328 104.8145)">
		<stop  offset="0" style="stop-color:#B1B1B1"/>
		<stop  offset="1" style="stop-color:#E4E4E4"/>
	</linearGradient>
	<path id="path2719" fill="url(#path2719_1_)" d="M50.838,93.801l0.884-1.325l2.298,1.325l3.845-0.133l0.133,1.371l3.403-0.486
		l0.751-1.37l3.801,0.132l0.397,1.459l2.563-0.266l0.795-1.59l3.801,0.043l0.31,1.326l2.607-0.309l0.575-1.459l3.977-0.088
		l0.31,1.281l2.343-0.309l0.928-1.326l3.535-0.178l0.486,1.282l2.299-0.044l0.176,1.326l-3.756,0.396l-0.266-1.325l-3.535,0.177
		l-0.088,1.37l-3.183,0.221l-0.132-1.237l-3.801,0.133l-0.045,1.237l-3.447,0.222l-0.265-1.371l-3.271,0.31l-0.133,1.458
		l-3.978,0.222l-0.044-1.458L61.18,94.95V96.1l-4.154,0.397l-0.133-1.414l-3.536,0.089l-2.475-1.018L50.838,93.801z"/>
	
		<linearGradient id="path2727_1_" gradientUnits="userSpaceOnUse" x1="106.2168" y1="44.0806" x2="104.8026" y2="43.9038" gradientTransform="matrix(1 0 0 -1 15.1328 104.8145)">
		<stop  offset="0" style="stop-color:#B1B1B1"/>
		<stop  offset="1" style="stop-color:#E4E4E4"/>
	</linearGradient>
	<path id="path2727" fill="url(#path2727_1_)" d="M120.975,72.234l0.84-0.928l-0.53-2.21l-0.442,0.397l-0.354-2.519l0.221-1.68
		l-0.441-1.546l-0.354,0.221l-0.31-2.166l0.354-1.679l-0.31-1.017l-0.441-0.265l-0.398-2.254l0.045-2.077l-0.354-1.989l-0.31,0.133
		l-0.53-2.475l-0.045-2.386h2.343l-0.221,1.016l1.104,4.243c0,0,0.266,0.972,0.266,1.149c0,0.177-0.177,1.944-0.177,1.944
		l0.707,2.254l0.31,4.729l0.574,0.398l0.266,2.298l-0.089,1.149l1.193,4.817l-0.133,0.397l-2.386,1.944L120.975,72.234z"/>
	
		<linearGradient id="path2739_1_" gradientUnits="userSpaceOnUse" x1="89.543" y1="66.8604" x2="89.2305" y2="66.1416" gradientTransform="matrix(1 0 0 -1 15.1328 104.8145)">
		<stop  offset="0" style="stop-color:#B1B1B1"/>
		<stop  offset="1" style="stop-color:#E4E4E4"/>
	</linearGradient>
	<path id="path2739" fill="url(#path2739_1_)" d="M89.857,30.027l-1.344,0.625l0.125,1.219l2.844,1.625l0.188-1.219l2.75,1.219
		l0.156,1.313l0.969-2.125c-0.125,0-2.875-1.531-2.875-1.531l-0.75,0.844l-2.156-0.875L89.857,30.027z M105.389,37.527l-0.031,1.75
		l1,0.531l0.156,1.469l2.938,1.375l0.031-1.219l2.938,1.469l-0.094,1.25l3.344,1.625l0.156-1.219l1.5,0.844l0.344,2.438l2.219-0.406
		l-0.344-2.719l-3.125-1.844l-0.813,1.344l-1.906-1l0.063-1.531l-3.063-1.563l-1.125,1l-1.719-0.75l0.031-1.313L105.389,37.527z"/>
	
		<linearGradient id="path2746_1_" gradientUnits="userSpaceOnUse" x1="53.2295" y1="75.5918" x2="53.3857" y2="74.7168" gradientTransform="matrix(1 0 0 -1 15.1328 104.8145)">
		<stop  offset="0" style="stop-color:#B1B1B1"/>
		<stop  offset="1" style="stop-color:#E4E4E4"/>
	</linearGradient>
	<path id="path2746" fill="url(#path2746_1_)" d="M86.076,27.34l-5.094,0.719c0,0-0.25,1.063-0.25,1.188s-1.469,0.344-1.719,0.188
		s-1.719-0.031-1.719-0.031l-0.531-1.281l-4.094,0.688l-0.188,1.375h-2.188l-0.594-0.063l-0.594-1.25l-3.813,0.344l-0.281,1.438
		h-0.656l0.031,1.375l1.406-0.031l0.406-1.438l3.531-0.156v1.375l3.844-0.094l0.094-1.688c0,0,3.688-0.406,3.813-0.406
		s0.094,1.219,0.094,1.219l4.094-0.25l0.313-1.344l3.438-0.313l2.906,1.844l1.531-0.844L86.076,27.34z M53.014,29.996l-2.344,0.156
		l-0.406,1.25l-2.531,0.219l-0.031,1.594l3.688,0.094l0.406-1.656l1.188-0.094L53.014,29.996z"/>
	
		<linearGradient id="path2757_1_" gradientUnits="userSpaceOnUse" x1="16.8721" y1="65.5908" x2="17.4347" y2="64.7157" gradientTransform="matrix(1 0 0 -1 15.1328 104.8145)">
		<stop  offset="0" style="stop-color:#B1B1B1"/>
		<stop  offset="1" style="stop-color:#E4E4E4"/>
	</linearGradient>
	<path id="path2757" sodipodi:nodetypes="cccccccccscccccccccccscccccccsccccccccccccc" fill="url(#path2757_1_)" d="M47.139,30.215
		l-3.844,0.094l-2.938,1.094l0.375,1.344l-2.063,1.75l-0.375-1.219l-1.625,1.25l-0.031,1.281l-2.5,2.188
		c0,0-0.156-1.375-0.375-1.188s-2.063,1.719-2.063,1.719l-0.031,1.344l-2.281,1.938l-0.188-1.188l-2.406,1.813l0.125,1.406
		l-2.344,1.781l-0.281-0.969l-2.875,2.281l0.063,0.938l-1.875,1.969c0,0-0.531,2.5-0.219,2.188s2.719-2.156,2.719-2.156
		l-0.063-1.375l2.438-2l0.063,1.844l2.656-2.688l-0.125-1.469l2.406-1.844c0,0-0.219,1.344,0.094,1.219s2.406-1.906,2.406-1.906
		l-0.063-1.375l2.125-1.594l0.313,1.563l2.594-2.125l-0.156-1.688l1.938-1.594l0.344,1.563l2.469-2.188l-0.375-1.219l2.688-1.344
		l3.875,0.188L47.139,30.215z"/>
	
		<linearGradient id="path2761_1_" gradientUnits="userSpaceOnUse" x1="2.7832" y1="42.0732" x2="3.7522" y2="42.167" gradientTransform="matrix(1 0 0 -1 15.1328 104.8145)">
		<stop  offset="0" style="stop-color:#B1B1B1"/>
		<stop  offset="1" style="stop-color:#E4E4E4"/>
	</linearGradient>
	<path id="path2761" fill="url(#path2761_1_)" d="M19.202,48.996l-3.719,2.781l0.563,3.25l0.031,1.781l0.344,3l0.344-0.281
		l0.344,2.125l0.063,2.125l0.375,2.25l0.406-0.031l0.156,1l-0.156,1.813l0.063,2.219l0.5-0.219l0.375,1.813l-0.156,1.656
		l0.375,1.969l0.656-0.313l1.656-0.281l-0.438-1.75c0,0,0.031-0.563,0.125-1.188s-0.344-2.188-0.344-2.188l-0.375-0.406l-0.188-1.5
		l-0.469-4.063l-0.594-1.438l0.156-2.031l-1.281-5.188l-0.156-4l1.406-1.156L19.202,48.996z"/>
	
		<linearGradient id="path2793_1_" gradientUnits="userSpaceOnUse" x1="69.998" y1="44.7427" x2="75.6234" y2="58.4935" gradientTransform="matrix(1 0 0 -1 15.1328 104.8145)">
		<stop  offset="0" style="stop-color:#B1B1B1"/>
		<stop  offset="1" style="stop-color:#E4E4E4"/>
	</linearGradient>
	<path id="path2793" fill="url(#path2793_1_)" d="M73.982,49.84l-4.5,5.25l23,9.5l-0.063,6.188l6.063-5.563l2.438-0.5l0.125-0.813
		l-7.125-2.875l0.063-7.125l-4.625,6.438l-15.313-6L73.982,49.84z"/>
	
		<linearGradient id="path2781_1_" gradientUnits="userSpaceOnUse" x1="74.7305" y1="46.417" x2="77.9805" y2="53.6045" gradientTransform="matrix(1 0 0 -1 15.1328 104.8145)">
		<stop  offset="0" style="stop-color:#B1B1B1"/>
		<stop  offset="1" style="stop-color:#E4E4E4"/>
	</linearGradient>
	<path id="path2781" fill="url(#path2781_1_)" d="M89.045,55.34l4.75-6.25l0.188,5.063L89.17,60.34L89.045,55.34z"/>
	
		<linearGradient id="path2789_1_" gradientUnits="userSpaceOnUse" x1="74.8955" y1="51.5215" x2="77.8328" y2="59.8959" gradientTransform="matrix(1 0 0 -1 15.1328 104.8145)">
		<stop  offset="0" style="stop-color:#6A3C1D"/>
		<stop  offset="1" style="stop-color:#8F5127"/>
	</linearGradient>
	<path id="path2789" fill="url(#path2789_1_)" d="M89.232,48.84l3.063-5.875l1.563-0.438l-0.063,6.75l-4.625,5.875L89.232,48.84z"/>
	<path id="path4979" fill="#D59163" d="M93.369,44.511l-0.418-0.114l-0.607,0.646l-0.494,1.254l0.037,0.875l0.229,0.304l0.836-0.342
		l0.533-0.988l0.113-1.369L93.369,44.511z"/>
	
		<linearGradient id="path4621_1_" gradientUnits="userSpaceOnUse" x1="63.3022" y1="66.0703" x2="73.2694" y2="57.5707" gradientTransform="matrix(1 0 0 -1 15.1328 104.8145)">
		<stop  offset="0" style="stop-color:#4A585B"/>
		<stop  offset="1" style="stop-color:#5E7074"/>
	</linearGradient>
	<path id="path4621" fill="url(#path4621_1_)" d="M73.881,42.608l3.303-5.688l15.228,5.993l-3.119,5.993L73.881,42.608z"/>
	
		<linearGradient id="path4625_1_" gradientUnits="userSpaceOnUse" x1="66.3213" y1="66.2109" x2="72.803" y2="64.8045" gradientTransform="matrix(1 0 0 -1 15.1328 104.8145)">
		<stop  offset="0" style="stop-color:#4A585B"/>
		<stop  offset="1" style="stop-color:#5E7074"/>
	</linearGradient>
	<path id="path4625" fill="url(#path4625_1_)" d="M77.123,36.921l3.24-0.489l13.576,5.076l0.062,1.101l-1.59,0.306l-12.903-5.076
		L77.123,36.921z"/>
	<g id="path5681" filter="url(#filter5693)">
		<polygon opacity="0.6667" points="93.854,60.75 91.163,57.326 91.285,44.728 87.371,42.404 86.148,40.447 90.43,41.058 
			93.365,42.648 94.099,54.757 96.789,57.448 		"/>
	</g>
	
		<linearGradient id="path2765_1_" gradientUnits="userSpaceOnUse" x1="80.2705" y1="65.3398" x2="84.6455" y2="41.9023" gradientTransform="matrix(1 0 0 -1 15.1328 104.8145)">
		<stop  offset="0" style="stop-color:#B1B1B1"/>
		<stop  offset="1" style="stop-color:#E4E4E4"/>
	</linearGradient>
	<path id="path2765" fill="url(#path2765_1_)" d="M93.857,36.465l0.063,24.563l6.875,3.063l0.125-24.563L93.857,36.465z"/>
	
		<linearGradient id="path2769_1_" gradientUnits="userSpaceOnUse" x1="89.4258" y1="66.5264" x2="86.3009" y2="43.3396" gradientTransform="matrix(1 0 0 -1 15.1328 104.8145)">
		<stop  offset="0" style="stop-color:#B1B1B1"/>
		<stop  offset="1" style="stop-color:#E4E4E4"/>
	</linearGradient>
	<path id="path2769" fill="url(#path2769_1_)" d="M100.857,39.715l4.438-4.688l-0.125,24.75l-4.063,4.063l-0.313-0.063
		L100.857,39.715z"/>
	
		<linearGradient id="path2773_1_" gradientUnits="userSpaceOnUse" x1="100.2959" y1="35.9775" x2="106.1089" y2="37.1651" gradientTransform="matrix(1 0 0 -1 15.1328 104.8145)">
		<stop  offset="0" style="stop-color:#B1B1B1"/>
		<stop  offset="1" style="stop-color:#E4E4E4"/>
	</linearGradient>
	<path id="path2773" fill="url(#path2773_1_)" d="M109.857,60.527l-2.375,3.063l6.938,3.938l1.625,5.25l-1.5,5.688l2.125-1.875
		l0.063-1.25l1.563-1l0.25,1.188l1.938-1.625l-3.188-9.688L109.857,60.527z"/>
	<g id="path5770" filter="url(#filter5780)">
		<polygon opacity="0.6667" points="105.596,58.182 113.913,65.521 113.791,78.118 115.748,82.032 122.475,77.996 119.295,62.83 		
			"/>
	</g>
	
		<linearGradient id="path2689_1_" gradientUnits="userSpaceOnUse" x1="103.4453" y1="45.9985" x2="104.5697" y2="34.1495" gradientTransform="matrix(1 0 0 -1 15.1328 104.8145)">
		<stop  offset="0" style="stop-color:#B1B1B1"/>
		<stop  offset="1" style="stop-color:#E4E4E4"/>
	</linearGradient>
	<path id="path2689" fill="url(#path2689_1_)" d="M117.047,64.109l0.172-18.551l0.52,2.205l-0.13,2.162l0.519,2.768l0.39-0.259
		l0.303,1.946l0.043,2.076l0.26,2.378h0.476l0.346,1.297l-0.26,1.427l0.087,2.508l0.347-0.173l0.475,1.556l-0.172,1.514l0.389,2.552
		l0.432-0.562l0.563,2.421l-0.734,0.778l0.129,1.428l-0.734,0.389L117.047,64.109z"/>
	
		<linearGradient id="path2693_1_" gradientUnits="userSpaceOnUse" x1="77.0352" y1="72.9492" x2="102.8081" y2="44.9276" gradientTransform="matrix(1 0 0 -1 15.1328 104.8145)">
		<stop  offset="0" style="stop-color:#B1B1B1"/>
		<stop  offset="1" style="stop-color:#E4E4E4"/>
	</linearGradient>
	<path id="path2693" fill="url(#path2693_1_)" d="M85.514,29.09l-0.125,9.344l8.438,3.031l-0.031-4.938l0.625-1.406l0.094-1.594
		l-2.844-1.406v1.25l-3.219-1.75l-0.063-0.938L85.514,29.09z M105.357,39.465l-0.156,18.75l11.969,6.031l0.125-19l-1.469-0.625
		l0.063,1.188l-3.656-1.469l0.156-1.5l-2.969-1.375v1.125l-2.844-1.313l-0.094-1.438L105.357,39.465z"/>
	
		<linearGradient id="path2777_1_" gradientUnits="userSpaceOnUse" x1="61.6929" y1="53.7227" x2="71.5049" y2="46.223" gradientTransform="matrix(1 0 0 -1 15.1328 104.8145)">
		<stop  offset="0" style="stop-color:#B1B1B1"/>
		<stop  offset="1" style="stop-color:#E4E4E4"/>
	</linearGradient>
	<path id="path2777" fill="url(#path2777_1_)" d="M74.107,49.34l-0.063,5.063L89.17,60.34v-5.25L74.107,49.34z"/>
	
		<linearGradient id="path2785_1_" gradientUnits="userSpaceOnUse" x1="61.8145" y1="59.436" x2="73.0014" y2="50.8115" gradientTransform="matrix(1 0 0 -1 15.1328 104.8145)">
		<stop  offset="0" style="stop-color:#6A3C1D"/>
		<stop  offset="1" style="stop-color:#8F5127"/>
	</linearGradient>
	<path id="path2785" fill="url(#path2785_1_)" d="M73.92,42.777l0.125,6.5l15.188,5.875v-6.438L73.92,42.777z"/>
	
		<linearGradient id="path2811_1_" gradientUnits="userSpaceOnUse" x1="27.4331" y1="52.895" x2="53.3057" y2="53.7074" gradientTransform="matrix(1 0 0 -1 15.1328 104.8145)">
		<stop  offset="0" style="stop-color:#B1B1B1"/>
		<stop  offset="1" style="stop-color:#E4E4E4"/>
	</linearGradient>
	<path id="path2811" fill="url(#path2811_1_)" d="M52.92,49.527l-9.125,0.5l-1.25,1.25l2.813-0.438l7.813,2.813L52.92,49.527z"/>
	
		<linearGradient id="path2843_1_" gradientUnits="userSpaceOnUse" x1="12.9805" y1="35.5801" x2="24.0417" y2="33.2678" gradientTransform="matrix(1 0 0 -1 15.1328 104.8145)">
		<stop  offset="0" style="stop-color:#B1B1B1"/>
		<stop  offset="1" style="stop-color:#E4E4E4"/>
	</linearGradient>
	<path id="path2843" fill="url(#path2843_1_)" d="M30.983,62.715l-0.188,5.938l-5.813,1.875l-3.813,4.375l-0.313-0.625l0.188-2
		L30.983,62.715z"/>
	<g id="path5650" filter="url(#filter5677)">
		<polygon opacity="0.6667" points="53.125,46.929 50.801,45.461 47.988,32.864 47.865,31.885 43.707,31.885 43.584,36.533 
			48.966,49.742 50.923,51.944 47.009,51.822 37.347,64.053 29.886,63.074 28.541,53.656 26.216,46.44 24.626,55.735 27.684,65.398 
			28.907,67.844 23.893,70.902 22.302,75.672 32.332,81.543 35.512,72.248 44.318,66.988 52.391,58.304 55.204,54.146 		"/>
	</g>
	
		<linearGradient id="path2797_1_" gradientUnits="userSpaceOnUse" x1="38.7559" y1="72.6543" x2="44.5684" y2="49.0918" gradientTransform="matrix(1 0 0 -1 15.1328 104.8145)">
		<stop  offset="0" style="stop-color:#B1B1B1"/>
		<stop  offset="1" style="stop-color:#E4E4E4"/>
	</linearGradient>
	<path id="path2797" fill="url(#path2797_1_)" d="M53.17,29.652v24.313l7.125,2.375l-0.25-23.938L53.17,29.652z"/>
	
		<linearGradient id="path2801_1_" gradientUnits="userSpaceOnUse" x1="45.585" y1="52.2266" x2="48.7726" y2="74.7898" gradientTransform="matrix(1 0 0 -1 15.1328 104.8145)">
		<stop  offset="0" style="stop-color:#B1B1B1"/>
		<stop  offset="1" style="stop-color:#E4E4E4"/>
	</linearGradient>
	<path id="path2801" fill="url(#path2801_1_)" d="M59.92,32.777l4.5-4.688l-0.125,24.625l-3.938,3.438L60.17,55.84L59.92,32.777z"/>
	
		<linearGradient id="path2807_1_" gradientUnits="userSpaceOnUse" x1="45.3721" y1="50.5845" x2="59.3709" y2="54.3967" gradientTransform="matrix(1 0 0 -1 15.1328 104.8145)">
		<stop  offset="0" style="stop-color:#B1B1B1"/>
		<stop  offset="1" style="stop-color:#E4E4E4"/>
	</linearGradient>
	<path id="path2807" fill="url(#path2807_1_)" d="M70.42,48.402l-9.875,10.125V57.09l0.5-0.438l-0.75-0.5l4.188-3.625V48.84
		L70.42,48.402z"/>
	
		<linearGradient id="path2815_1_" gradientUnits="userSpaceOnUse" x1="29.3701" y1="44.2661" x2="37.8076" y2="36.8911" gradientTransform="matrix(1 0 0 -1 15.1328 104.8145)">
		<stop  offset="0" style="stop-color:#6A3C1D"/>
		<stop  offset="1" style="stop-color:#8F5127"/>
	</linearGradient>
	<path id="path2815" fill="url(#path2815_1_)" d="M42.483,58.465l-0.125,6.375l12.313,4.688l-0.063-6.313L42.483,58.465z"/>
	
		<linearGradient id="path2819_1_" gradientUnits="userSpaceOnUse" x1="40.8018" y1="37.6401" x2="44.6143" y2="47.0151" gradientTransform="matrix(1 0 0 -1 15.1328 104.8145)">
		<stop  offset="0" style="stop-color:#6A3C1D"/>
		<stop  offset="1" style="stop-color:#8F5127"/>
	</linearGradient>
	<path id="path2819" fill="url(#path2819_1_)" d="M54.483,63.277l2.938-5.813l3-0.5l0.313,5.875l-5.938,6.688L54.483,63.277z"/>
	
		<linearGradient id="path2823_1_" gradientUnits="userSpaceOnUse" x1="28.8555" y1="38.3579" x2="39.2305" y2="30.9204" gradientTransform="matrix(1 0 0 -1 15.1328 104.8145)">
		<stop  offset="0" style="stop-color:#B1B1B1"/>
		<stop  offset="1" style="stop-color:#E4E4E4"/>
	</linearGradient>
	<path id="path2823" fill="url(#path2823_1_)" d="M42.483,64.902l12.25,4.625l-0.063,5.25l-12.25-4.813L42.483,64.902z"/>
	
		<linearGradient id="path2827_1_" gradientUnits="userSpaceOnUse" x1="40.6582" y1="32.2603" x2="43.9082" y2="39.1353" gradientTransform="matrix(1 0 0 -1 15.1328 104.8145)">
		<stop  offset="0" style="stop-color:#B1B1B1"/>
		<stop  offset="1" style="stop-color:#E4E4E4"/>
	</linearGradient>
	<path id="path2827" fill="url(#path2827_1_)" d="M54.608,69.402l5.75-5.938l0.188,4.688l-5.688,6.438L54.608,69.402z"/>
	
		<linearGradient id="path2831_1_" gradientUnits="userSpaceOnUse" x1="18.7446" y1="44.1836" x2="22.9946" y2="25.8711" gradientTransform="matrix(1 0 0 -1 15.1328 104.8145)">
		<stop  offset="0" style="stop-color:#B1B1B1"/>
		<stop  offset="1" style="stop-color:#E4E4E4"/>
	</linearGradient>
	<path id="path2831" fill="url(#path2831_1_)" d="M30.858,52.777l0.063,16l6.438,6.25l-0.125,5l0.813,0.438L37.67,56.09
		L30.858,52.777z"/>
	
		<linearGradient id="path2835_1_" gradientUnits="userSpaceOnUse" x1="23.7651" y1="29.2354" x2="26.1401" y2="48.4222" gradientTransform="matrix(1 0 0 -1 15.1328 104.8145)">
		<stop  offset="0" style="stop-color:#B1B1B1"/>
		<stop  offset="1" style="stop-color:#E4E4E4"/>
	</linearGradient>
	<path id="path2835" fill="url(#path2835_1_)" d="M37.67,56.465l4.813-4.75L42.42,76.152l-4.375,4.563L37.67,56.465z"/>
	
		<linearGradient id="path2839_1_" gradientUnits="userSpaceOnUse" x1="38.0269" y1="29.8975" x2="51.5269" y2="28.085" gradientTransform="matrix(1 0 0 -1 15.1328 104.8145)">
		<stop  offset="0" style="stop-color:#B1B1B1"/>
		<stop  offset="1" style="stop-color:#E4E4E4"/>
	</linearGradient>
	<path id="path2839" fill="url(#path2839_1_)" d="M54.17,78.902l9.5-11.188l-3.25-1.25l0.125,1.75l-5.875,6.438l-12.438-4.75
		l0.125,6.125l-4.313,4.375l-0.75-0.25v2.063l5.5-5.5l6.438-2.688L54.17,78.902z"/>
	
		<linearGradient id="path2847_1_" gradientUnits="userSpaceOnUse" x1="9.8657" y1="29.353" x2="13.3035" y2="23.1651" gradientTransform="matrix(1 0 0 -1 15.1328 104.8145)">
		<stop  offset="0" style="stop-color:#B1B1B1"/>
		<stop  offset="1" style="stop-color:#E4E4E4"/>
	</linearGradient>
	<path id="path2847" fill="url(#path2847_1_)" d="M21.17,75.402l4.875-1.375l6,6l0.063,4.25l-1.125-0.313l0.125-1.375l-3.188-1.688
		l-0.625,0.875l-2.25-0.938l0.063-1.188L21.67,77.59L21.17,75.402z"/>
	
		<linearGradient id="path2851_1_" gradientUnits="userSpaceOnUse" x1="18.8638" y1="22.1011" x2="20.9888" y2="27.8511" gradientTransform="matrix(1 0 0 -1 15.1328 104.8145)">
		<stop  offset="0" style="stop-color:#B1B1B1"/>
		<stop  offset="1" style="stop-color:#E4E4E4"/>
	</linearGradient>
	<path id="path2851" fill="url(#path2851_1_)" d="M32.108,80.09l5.25-5.063l-0.25,7l-2.188,2.375l-0.875-0.5l-1.25,0.75
		l-0.688-0.438V80.09z"/>
	
		<linearGradient id="path2855_1_" gradientUnits="userSpaceOnUse" x1="22.8809" y1="18.3799" x2="23.7556" y2="16.9428" gradientTransform="matrix(1 0 0 -1 15.1328 104.8145)">
		<stop  offset="0" style="stop-color:#B1B1B1"/>
		<stop  offset="1" style="stop-color:#E4E4E4"/>
	</linearGradient>
	<path id="path2855" fill="url(#path2855_1_)" d="M36.483,85.277l1.25-0.25l2.25,2.188l-1.063,0.563l-2-0.688l0.25-1.438
		L36.483,85.277z"/>
	
		<linearGradient id="path2859_1_" gradientUnits="userSpaceOnUse" x1="34.6782" y1="13.9199" x2="37.3032" y2="20.4824" gradientTransform="matrix(1 0 0 -1 15.1328 104.8145)">
		<stop  offset="0" style="stop-color:#B1B1B1"/>
		<stop  offset="1" style="stop-color:#E4E4E4"/>
	</linearGradient>
	<path id="path2859" fill="url(#path2859_1_)" d="M45.795,89.715l9.813-8.875l0.063,6.625l-6.125,5.75l-0.625-0.438l0.125-1.5
		L45.795,89.715z"/>
	<g id="path5701" filter="url(#filter5754)">
		<polygon opacity="0.6667" points="56.06,93.652 52.758,90.838 53.125,87.536 56.06,85.946 61.687,87.658 		"/>
	</g>
	
		<linearGradient id="path2863_1_" gradientUnits="userSpaceOnUse" x1="46.6929" y1="16.3457" x2="49.5052" y2="11.7835" gradientTransform="matrix(1 0 0 -1 15.1328 104.8145)">
		<stop  offset="0" style="stop-color:#B1B1B1"/>
		<stop  offset="1" style="stop-color:#E4E4E4"/>
	</linearGradient>
	<path id="path2863" fill="url(#path2863_1_)" d="M56.17,86.277l0.188,7.438l1.5,0.063l0.188,1.125l3.063-0.188l0.75-1.375h4.125
		c0,0,0.125,1.375,0.375,1.375s2.688-0.25,2.688-0.25l0.563-1.438l2.438-0.125l0.063-1.875L56.17,86.277z"/>
	
		<linearGradient id="path2867_1_" gradientUnits="userSpaceOnUse" x1="60.4761" y1="11.501" x2="62.7888" y2="16.0639" gradientTransform="matrix(1 0 0 -1 15.1328 104.8145)">
		<stop  offset="0" style="stop-color:#B1B1B1"/>
		<stop  offset="1" style="stop-color:#E4E4E4"/>
	</linearGradient>
	<path id="path2867" fill="url(#path2867_1_)" d="M72.045,90.965l2.938-5.063l5.688,0.5l0.188,5.938l-3.813,0.25l-0.563,1.375
		l-2.75,0.188c0,0,0.063-1.25-0.188-1.313s-1.375,0.125-1.375,0.125L72.045,90.965z"/>
	<g id="path5697" filter="url(#filter5713)">
		<polygon opacity="0.6667" points="62.665,65.153 60.953,61.851 61.442,58.549 65.479,58.304 67.436,61.606 		"/>
	</g>
	
		<linearGradient id="path2871_1_" gradientUnits="userSpaceOnUse" x1="50.6475" y1="42.9839" x2="57.4595" y2="36.6094" gradientTransform="matrix(1 0 0 -1 15.1328 104.8145)">
		<stop  offset="0" style="stop-color:#B1B1B1"/>
		<stop  offset="1" style="stop-color:#E4E4E4"/>
	</linearGradient>
	<path id="path2871" fill="url(#path2871_1_)" d="M62.795,59.84l13.312,5l-4.125,4.188L62.42,65.34L62.795,59.84z"/>
	
		<linearGradient id="path2885_1_" gradientUnits="userSpaceOnUse" x1="74.6895" y1="28.0127" x2="104.69" y2="39.8254" gradientTransform="matrix(1 0 0 -1 15.1328 104.8145)">
		<stop  offset="0" style="stop-color:#B1B1B1"/>
		<stop  offset="1" style="stop-color:#E4E4E4"/>
	</linearGradient>
	<path id="path2885" fill="url(#path2885_1_)" d="M69.045,67.902l-8.562,10l37.812,11.5l1,0.75l1.938-2.313l-0.25-0.75l2.938-2.125
		l0.25,1.125l2.25-1.75l-0.063-1.375l8.25-9.063l-3.375-1l0.188,2.813L99.357,86.527l-12.75-3.375l0.313-7.125
		c0,0,0-0.25-0.313-0.063s-5.938,5.5-5.938,5.5l-12-3.438l0.25-5.188h-1.063l4.25-3.813L69.045,67.902z"/>
	<path id="path5023" fill-opacity="0.1569" d="M69.045,67.902l-8.562,10l37.812,11.5l1,0.75l1.938-2.313l-0.25-0.75l2.938-2.125
		l0.25,1.125l2.25-1.75l-0.063-1.375l8.25-9.063l-3.375-1l0.188,2.813L99.357,86.527l-12.75-3.375l0.313-7.125
		c0,0,0-0.25-0.313-0.063s-5.938,5.5-5.938,5.5l-12-3.438l0.25-5.188h-1.063l4.25-3.813L69.045,67.902z"/>
	<g id="path5703" filter="url(#filter5730)">
		<polygon opacity="0.6667" points="68.902,77.996 65.845,75.428 71.104,69.924 74.529,71.881 		"/>
	</g>
	
		<linearGradient id="path2875_1_" gradientUnits="userSpaceOnUse" x1="56.0391" y1="31.4277" x2="63.6011" y2="24.7407" gradientTransform="matrix(1 0 0 -1 15.1328 104.8145)">
		<stop  offset="0" style="stop-color:#B1B1B1"/>
		<stop  offset="1" style="stop-color:#E4E4E4"/>
	</linearGradient>
	<path id="path2875" fill="url(#path2875_1_)" d="M68.732,72.652l7.188-1.813l4.5,5.375l0.063,5.375l-11.688-3.563L68.732,72.652z"
		/>
	
		<linearGradient id="path2879_1_" gradientUnits="userSpaceOnUse" x1="67.4473" y1="25.7041" x2="76.0098" y2="38.6416" gradientTransform="matrix(1 0 0 -1 15.1328 104.8145)">
		<stop  offset="0" style="stop-color:#B1B1B1"/>
		<stop  offset="1" style="stop-color:#E4E4E4"/>
	</linearGradient>
	<path id="path2879" fill="url(#path2879_1_)" d="M80.295,76.027l12-10.938l0.125,5.688L80.67,81.59L80.295,76.027z"/>
	<g id="path5699" filter="url(#filter5766)">
		<polygon opacity="0.6667" points="86.76,82.889 84.069,80.442 83.58,74.449 92.02,67.478 98.258,70.657 		"/>
	</g>
	
		<linearGradient id="path2889_1_" gradientUnits="userSpaceOnUse" x1="74.6289" y1="26.7798" x2="82.0034" y2="18.9678" gradientTransform="matrix(1 0 0 -1 15.1328 104.8145)">
		<stop  offset="0" style="stop-color:#6A3C1D"/>
		<stop  offset="1" style="stop-color:#8F5127"/>
	</linearGradient>
	<path id="path2889" fill="url(#path2889_1_)" d="M86.982,76.09l-0.188,7.063l12.313,3.313c0,0,0.938-6.25,0.313-6.438
		s-6.063-6-6.063-6L86.982,76.09z"/>
	
		<linearGradient id="path2893_1_" gradientUnits="userSpaceOnUse" x1="85.4941" y1="20.3457" x2="95.2437" y2="33.9701" gradientTransform="matrix(1 0 0 -1 15.1328 104.8145)">
		<stop  offset="0" style="stop-color:#6A3C1D"/>
		<stop  offset="1" style="stop-color:#8F5127"/>
	</linearGradient>
	<path id="path2893" fill="url(#path2893_1_)" d="M99.232,80.027l12.188-10.813v6.563L99.545,86.59L99.232,80.027z"/>
	
		<linearGradient id="path4553_1_" gradientUnits="userSpaceOnUse" x1="69.2627" y1="14.5767" x2="81.3103" y2="15.4328" gradientTransform="matrix(1 0 0 -1 15.1328 104.8145)">
		<stop  offset="0" style="stop-color:#B1B1B1"/>
		<stop  offset="1" style="stop-color:#E4E4E4"/>
	</linearGradient>
	<path id="path4553" sodipodi:nodetypes="ccccccccc" fill="url(#path4553_1_)" d="M80.854,87.19l10.273,2.568l-2.63,3.485
		l-0.428-1.283l-3.425,0.121l-0.918,1.346l-2.629,0.245l-0.184-1.284L80.854,87.19z"/>
	
		<linearGradient id="path4557_1_" gradientUnits="userSpaceOnUse" x1="80.1514" y1="36.4473" x2="80.763" y2="34.9181" gradientTransform="matrix(1 0 0 -1 15.1328 104.8145)">
		<stop  offset="0" style="stop-color:#4A585B"/>
		<stop  offset="1" style="stop-color:#5E7074"/>
	</linearGradient>
	<path id="path4557" fill="url(#path4557_1_)" d="M87.152,75.815l11.252-10.642l5.932-1.957L93.084,73.858L87.152,75.815z"/>
	
		<linearGradient id="path4561_1_" gradientUnits="userSpaceOnUse" x1="84.5488" y1="27.1792" x2="89.8085" y2="39.6555" gradientTransform="matrix(1 0 0 -1 15.1328 104.8145)">
		<stop  offset="0" style="stop-color:#4A585B"/>
		<stop  offset="1" style="stop-color:#5E7074"/>
	</linearGradient>
	<path id="path4561" fill="url(#path4561_1_)" d="M93.084,73.797c0,0,11.191-11.313,11.619-10.885
		c0.428,0.428,6.85,6.055,6.85,6.055l-12.23,11.068L93.084,73.797z"/>
	
		<linearGradient id="path4565_1_" gradientUnits="userSpaceOnUse" x1="49.5352" y1="19.8013" x2="55.7118" y2="14.6642" gradientTransform="matrix(1 0 0 -1 15.1328 104.8145)">
		<stop  offset="0" style="stop-color:#4A585B"/>
		<stop  offset="1" style="stop-color:#5E7074"/>
	</linearGradient>
	<path id="path4565" fill="url(#path4565_1_)" d="M56.391,85.906l3.914-4.893l14.861,4.953l-3.059,4.893L56.391,85.906z"/>
	
		<linearGradient id="path4569_1_" gradientUnits="userSpaceOnUse" x1="52.0049" y1="21.9722" x2="56.4083" y2="21.3606" gradientTransform="matrix(1 0 0 -1 15.1328 104.8145)">
		<stop  offset="0" style="stop-color:#4A585B"/>
		<stop  offset="1" style="stop-color:#5E7074"/>
	</linearGradient>
	<path id="path4569" fill="url(#path4569_1_)" d="M60.121,80.953l14.922,4.892l5.076,0.122l-14.616-5.259L60.121,80.953z"/>
	
		<linearGradient id="path4573_1_" gradientUnits="userSpaceOnUse" x1="26.7285" y1="21.0303" x2="39.266" y2="24.5163" gradientTransform="matrix(1 0 0 -1 15.1328 104.8145)">
		<stop  offset="0" style="stop-color:#9E2612"/>
		<stop  offset="1" style="stop-color:#BD5032"/>
	</linearGradient>
	<path id="path4573" fill="url(#path4573_1_)" d="M37.738,84.928l11.681-10.886l6.421,6.544L44.771,90.615l-1.712-0.367l0.122-1.529
		l-3.241-1.773l-0.367,0.062L37.738,84.928z"/>
	
		<linearGradient id="path4577_1_" gradientUnits="userSpaceOnUse" x1="26.8208" y1="25.7959" x2="28.2888" y2="22.4317" gradientTransform="matrix(1 0 0 -1 15.1328 104.8145)">
		<stop  offset="0" style="stop-color:#9E2612"/>
		<stop  offset="1" style="stop-color:#BD5032"/>
	</linearGradient>
	<path id="path4577" fill="url(#path4577_1_)" d="M36.699,85.233l1.284-0.366l11.436-10.703l-6.849,2.813l-7.889,7.339
		L36.699,85.233z"/>
	
		<linearGradient id="path4581_1_" gradientUnits="userSpaceOnUse" x1="66.4551" y1="30.4141" x2="70.5898" y2="41.2997" gradientTransform="matrix(1 0 0 -1 15.1328 104.8145)">
		<stop  offset="0" style="stop-color:#4A585B"/>
		<stop  offset="1" style="stop-color:#5E7074"/>
	</linearGradient>
	<path id="path4581" fill="url(#path4581_1_)" d="M75.716,70.678l7.399-8.316c0,0,9.846,2.018,9.418,2.385
		c-0.428,0.367-12.047,11.253-12.047,11.253L75.716,70.678z"/>
	
		<linearGradient id="path4585_1_" gradientUnits="userSpaceOnUse" x1="60.2183" y1="39.4053" x2="60.4629" y2="34.7575" gradientTransform="matrix(1 0 0 -1 15.1328 104.8145)">
		<stop  offset="0" style="stop-color:#4A585B"/>
		<stop  offset="1" style="stop-color:#5E7074"/>
	</linearGradient>
	<path id="path4585" fill="url(#path4585_1_)" d="M68.071,72.818l8.134-7.889l6.666-2.385l-7.217,8.195l-7.277,2.14L68.071,72.818z"
		/>
	
		<linearGradient id="path4589_1_" gradientUnits="userSpaceOnUse" x1="51.0327" y1="48.0923" x2="62.4069" y2="40.5706" gradientTransform="matrix(1 0 0 -1 15.1328 104.8145)">
		<stop  offset="0" style="stop-color:#4A585B"/>
		<stop  offset="1" style="stop-color:#5E7074"/>
	</linearGradient>
	<path id="path4589" sodipodi:nodetypes="cccsc" fill="url(#path4589_1_)" d="M64.953,54.472l-2.63,5.198l14.004,5.199
		c0,0,7.216-2.263,6.666-2.508S65.014,54.717,64.953,54.472z"/>
	
		<linearGradient id="path4593_1_" gradientUnits="userSpaceOnUse" x1="61.1533" y1="45.1797" x2="62.5599" y2="45.302" gradientTransform="matrix(1 0 0 -1 15.1328 104.8145)">
		<stop  offset="0" style="stop-color:#4A585B"/>
		<stop  offset="1" style="stop-color:#5E7074"/>
	</linearGradient>
	<path id="path4593" fill="url(#path4593_1_)" d="M65.074,54.472l2.936-0.183l24.279,10.09l-8.99-2.079L65.074,54.472z"/>
	
		<linearGradient id="path4597_1_" gradientUnits="userSpaceOnUse" x1="17.0605" y1="27.2021" x2="16.0515" y2="33.6234" gradientTransform="matrix(1 0 0 -1 15.1328 104.8145)">
		<stop  offset="0" style="stop-color:#4A585B"/>
		<stop  offset="1" style="stop-color:#5E7074"/>
	</linearGradient>
	<path id="path4597" fill="url(#path4597_1_)" d="M26.058,74.042l4.709-5.504l6.605,6.544l-5.443,5.259L26.058,74.042z"/>
	
		<linearGradient id="path4601_1_" gradientUnits="userSpaceOnUse" x1="10.3696" y1="34.0566" x2="11.5013" y2="31.671" gradientTransform="matrix(1 0 0 -1 15.1328 104.8145)">
		<stop  offset="0" style="stop-color:#4A585B"/>
		<stop  offset="1" style="stop-color:#5E7074"/>
	</linearGradient>
	<path id="path4601" fill="url(#path4601_1_)" d="M21.166,74.775l4.036-4.525l5.688-1.773l-4.832,5.565l-4.77,1.468L21.166,74.775z"
		/>
	
		<linearGradient id="path4605_1_" gradientUnits="userSpaceOnUse" x1="18.7764" y1="57.2144" x2="21.1614" y2="51.0377" gradientTransform="matrix(1 0 0 -1 15.1328 104.8145)">
		<stop  offset="0" style="stop-color:#9E2612"/>
		<stop  offset="1" style="stop-color:#BD5032"/>
	</linearGradient>
	<path id="path4605" sodipodi:nodetypes="ccccc" fill="url(#path4605_1_)" d="M30.95,52.821l5.32-11.987l1.712,15.35L35.354,54.9
		L30.95,52.821z"/>
	
		<linearGradient id="path4609_1_" gradientUnits="userSpaceOnUse" x1="21.4609" y1="53.8604" x2="24.5799" y2="58.7528" gradientTransform="matrix(1 0 0 -1 15.1328 104.8145)">
		<stop  offset="0" style="stop-color:#9E2612"/>
		<stop  offset="1" style="stop-color:#BD5032"/>
	</linearGradient>
	<path id="path4609" fill="url(#path4609_1_)" d="M36.393,40.773l6.482,10.825l-4.893,4.709L36.332,41.63L36.393,40.773z"/>
	
		<linearGradient id="path4613_1_" gradientUnits="userSpaceOnUse" x1="82.8232" y1="73.6084" x2="86.431" y2="70.9178" gradientTransform="matrix(1 0 0 -1 15.1328 104.8145)">
		<stop  offset="0" style="stop-color:#9E2612"/>
		<stop  offset="1" style="stop-color:#BD5032"/>
	</linearGradient>
	<path id="path4613" fill="url(#path4613_1_)" d="M93.939,36.309l5.811-11.864l1.039,15.289L93.939,36.309z"/>
	
		<linearGradient id="path4617_1_" gradientUnits="userSpaceOnUse" x1="84.6533" y1="70.4629" x2="87.772" y2="75.783" gradientTransform="matrix(1 0 0 -1 15.1328 104.8145)">
		<stop  offset="0" style="stop-color:#9E2612"/>
		<stop  offset="1" style="stop-color:#BD5032"/>
	</linearGradient>
	<path id="path4617" fill="url(#path4617_1_)" d="M101.034,39.367l-1.284-14.8l5.626,10.091L101.034,39.367z"/>
	
		<linearGradient id="path4629_1_" gradientUnits="userSpaceOnUse" x1="40.5127" y1="80.4336" x2="42.653" y2="73.2789" gradientTransform="matrix(1 0 0 -1 15.1328 104.8145)">
		<stop  offset="0" style="stop-color:#4A585B"/>
		<stop  offset="1" style="stop-color:#5E7074"/>
	</linearGradient>
	<path id="path4629" fill="url(#path4629_1_)" d="M58.103,18.085l-5.259,11.436l7.155,3.119L58.103,18.085z"/>
	
		<linearGradient id="path4633_1_" gradientUnits="userSpaceOnUse" x1="43.7305" y1="77.75" x2="46.7882" y2="83.0705" gradientTransform="matrix(1 0 0 -1 15.1328 104.8145)">
		<stop  offset="0" style="stop-color:#4A585B"/>
		<stop  offset="1" style="stop-color:#5E7074"/>
	</linearGradient>
	<path id="path4633" sodipodi:nodetypes="ccccc" fill="url(#path4633_1_)" d="M60.121,32.64c0-0.856-1.834-14.922-1.834-14.922
		l0.306,0.122l5.688,10.152L60.121,32.64z"/>
	
		<linearGradient id="path4637_1_" gradientUnits="userSpaceOnUse" x1="37.5542" y1="50.7061" x2="40.1227" y2="50.8284" gradientTransform="matrix(1 0 0 -1 15.1328 104.8145)">
		<stop  offset="0" style="stop-color:#4A585B"/>
		<stop  offset="1" style="stop-color:#5E7074"/>
	</linearGradient>
	<path id="path4637" fill="url(#path4637_1_)" d="M42.814,51.476l14.677,5.993l3.608-0.611l-15.656-5.993L42.814,51.476z"/>
	
		<linearGradient id="path4641_1_" gradientUnits="userSpaceOnUse" x1="29.7183" y1="50.5493" x2="39.0138" y2="43.8834" gradientTransform="matrix(1 0 0 -1 15.1328 104.8145)">
		<stop  offset="0" style="stop-color:#4A585B"/>
		<stop  offset="1" style="stop-color:#5E7074"/>
	</linearGradient>
	<path id="path4641" fill="url(#path4641_1_)" d="M42.692,51.537c0.795,0.367,14.922,5.994,14.922,5.994l-3.058,5.81l-12.17-4.954
		v-6.727L42.692,51.537z"/>
	
		<linearGradient id="path4651_1_" gradientUnits="userSpaceOnUse" x1="17.6406" y1="48.0762" x2="19.2755" y2="44.4529" gradientTransform="matrix(1 0 0 -1 15.1328 104.8145)">
		<stop  offset="0" style="stop-color:#6A3C1D"/>
		<stop  offset="1" style="stop-color:#8F5127"/>
	</linearGradient>
	<path id="path4651" fill="url(#path4651_1_)" d="M32.188,60.435l0.177-2.298l0.663-0.84l0.53-0.442l0.84-0.133l0.707,0.486
		l0.354,0.486l0.309,0.884v0.751l0.177,1.238l0.044,1.105L32.188,60.435z"/>
	
		<linearGradient id="path4655_1_" gradientUnits="userSpaceOnUse" x1="17.6416" y1="48.0771" x2="19.2771" y2="44.4526" gradientTransform="matrix(1 0 0 -1 15.1328 113.0352)">
		<stop  offset="0" style="stop-color:#6A3C1D"/>
		<stop  offset="1" style="stop-color:#8F5127"/>
	</linearGradient>
	<path id="path4655" fill="url(#path4655_1_)" d="M32.188,68.654l0.177-2.297l0.663-0.84l0.53-0.442l0.84-0.133l0.707,0.486
		l0.354,0.485l0.309,0.885v0.751l0.177,1.237l0.044,1.105L32.188,68.654z"/>
	
		<linearGradient id="path4659_1_" gradientUnits="userSpaceOnUse" x1="24.1055" y1="39.0962" x2="25.7404" y2="43.3381" gradientTransform="matrix(1 0 0 -1 15.1328 104.8145)">
		<stop  offset="0" style="stop-color:#6A3C1D"/>
		<stop  offset="1" style="stop-color:#8F5127"/>
	</linearGradient>
	<path id="path4659" fill="url(#path4659_1_)" d="M39.215,65.693l-0.044-2.297l0.354-1.193l0.354-1.282l0.53-0.751l0.354-0.177
		l0.265,0.442l0.133,1.724l0.044,1.591L39.215,65.693z"/>
	
		<linearGradient id="path4663_1_" gradientUnits="userSpaceOnUse" x1="23.9082" y1="25.2925" x2="25.2524" y2="28.2622" gradientTransform="matrix(1 0 0 -1 15.1328 104.8145)">
		<stop  offset="0" style="stop-color:#6A3C1D"/>
		<stop  offset="1" style="stop-color:#8F5127"/>
	</linearGradient>
	<path id="path4663" fill="url(#path4663_1_)" d="M39.264,79.246l0.031-3.125l2.031-2.344v3.531L39.264,79.246z"/>
	
		<linearGradient id="path4667_1_" gradientUnits="userSpaceOnUse" x1="10.2646" y1="27.6484" x2="11.9753" y2="25.1014" gradientTransform="matrix(1 0 0 -1 15.1328 104.8145)">
		<stop  offset="0" style="stop-color:#BB8F56"/>
		<stop  offset="1" style="stop-color:#D1AF63"/>
	</linearGradient>
	<path id="path4667" fill="url(#path4667_1_)" d="M24.202,75.496l3.188,1.094l-0.063,3.438l-3.125-1.094V75.496z"/>
	<path id="path4907" sodipodi:nodetypes="ccccc" fill="#D59163" d="M46.44,61.506l3.149,1.284l0.052,3.399l-3.201-1.246V61.506z"/>
	
		<linearGradient id="path4911_1_" gradientUnits="userSpaceOnUse" x1="23.9072" y1="25.293" x2="25.2512" y2="28.2622" gradientTransform="matrix(1 0 0 -1 32.8477 97.4023)">
		<stop  offset="0" style="stop-color:#6A3C1D"/>
		<stop  offset="1" style="stop-color:#8F5127"/>
	</linearGradient>
	<path id="path4911" fill="url(#path4911_1_)" d="M56.979,71.833l0.031-3.125l2.031-2.344v3.531L56.979,71.833z"/>
	
		<linearGradient id="path4915_1_" gradientUnits="userSpaceOnUse" x1="10.3242" y1="27.6885" x2="12.0349" y2="25.1414" gradientTransform="matrix(1 0 0 -1 45.355 78.2422)">
		<stop  offset="0" style="stop-color:#BB8F56"/>
		<stop  offset="1" style="stop-color:#D1AF63"/>
	</linearGradient>
	<path id="path4915" sodipodi:nodetypes="ccccc" fill="url(#path4915_1_)" d="M54.424,48.733l3.188,1.284l-0.063,3.438L54.5,52.208
		L54.424,48.733z"/>
	
		<linearGradient id="path4919_1_" gradientUnits="userSpaceOnUse" x1="10.3242" y1="27.6885" x2="12.0349" y2="25.1414" gradientTransform="matrix(1 0 0 -1 45.6211 70.8672)">
		<stop  offset="0" style="stop-color:#BB8F56"/>
		<stop  offset="1" style="stop-color:#D1AF63"/>
	</linearGradient>
	<path id="path4919" sodipodi:nodetypes="ccccc" fill="url(#path4919_1_)" d="M54.69,41.358l3.188,1.284l-0.063,3.438l-3.049-1.246
		L54.69,41.358z"/>
	
		<linearGradient id="path4923_1_" gradientUnits="userSpaceOnUse" x1="10.3252" y1="27.6895" x2="12.0362" y2="25.142" gradientTransform="matrix(1 0 0 -1 45.583 63.7578)">
		<stop  offset="0" style="stop-color:#BB8F56"/>
		<stop  offset="1" style="stop-color:#D1AF63"/>
	</linearGradient>
	<path id="path4923" sodipodi:nodetypes="ccccc" fill="url(#path4923_1_)" d="M54.652,34.25l3.188,1.284l-0.063,3.438l-3.049-1.246
		L54.652,34.25z"/>
	
		<linearGradient id="path4927_1_" gradientUnits="userSpaceOnUse" x1="46.6035" y1="55.8057" x2="47.8582" y2="59.6078" gradientTransform="matrix(1 0 0 -1 15.1328 104.8145)">
		<stop  offset="0" style="stop-color:#BB8F56"/>
		<stop  offset="1" style="stop-color:#D1AF63"/>
	</linearGradient>
	<path id="path4927" fill="url(#path4927_1_)" d="M61.209,46.715l2.128-2.319l0.038,3.536l-2.091,2.243L61.209,46.715z"/>
	
		<linearGradient id="path4931_1_" gradientUnits="userSpaceOnUse" x1="46.6035" y1="55.8066" x2="47.858" y2="59.6082" gradientTransform="matrix(1 0 0 -1 14.9805 96.1094)">
		<stop  offset="0" style="stop-color:#BB8F56"/>
		<stop  offset="1" style="stop-color:#D1AF63"/>
	</linearGradient>
	<path id="path4931" fill="url(#path4931_1_)" d="M61.057,38.01l2.129-2.319l0.038,3.536l-2.091,2.243L61.057,38.01z"/>
	<path id="path4935" sodipodi:nodetypes="ccccc" fill="#D59163" d="M65.372,61.583l3.149,1.284l0.052,3.399l-3.201-1.246V61.583z"/>
	
		<linearGradient id="path4937_1_" gradientUnits="userSpaceOnUse" x1="24.8013" y1="27.9004" x2="26.7156" y2="25.5846" gradientTransform="matrix(1 0 0 -1 48.3579 105.043)">
		<stop  offset="0" style="stop-color:#6A3C1D"/>
		<stop  offset="1" style="stop-color:#8F5127"/>
	</linearGradient>
	<path id="path4937" sodipodi:nodetypes="ccccc" fill="url(#path4937_1_)" d="M72.489,79.475l0.069-3.658l3.058,1.154l-0.075,3.074
		L72.489,79.475z"/>
	<path id="path4941" fill="#D59163" d="M74.666,71.92l-0.152,0.646l0.076,0.418l0.418,0.494l0.761,0.342l0.304-0.494l-0.076-0.799
		l-0.455-0.455l-0.494-0.19L74.666,71.92z"/>
	<path id="path4943" fill="#D59163" d="M58.814,58.424l-0.57-0.038l-0.532,0.608l-0.418,1.216l-0.038,0.76l0.266,0.57l0.532-0.152
		l0.646-0.913l0.266-1.331L58.814,58.424z"/>
	<path id="path4945" sodipodi:nodetypes="ccccc" fill="#D59163" d="M50.488,86.974l2.091-2.396l0.038,3.536l-2.091,2.243
		L50.488,86.974z"/>
	
		<linearGradient id="path4949_1_" gradientUnits="userSpaceOnUse" x1="60.4678" y1="14.7349" x2="61.5702" y2="17.662" gradientTransform="matrix(1 0 0 -1 15.1328 104.8145)">
		<stop  offset="0" style="stop-color:#6A3C1D"/>
		<stop  offset="1" style="stop-color:#8F5127"/>
	</linearGradient>
	<path id="path4949" fill="url(#path4949_1_)" d="M76.415,87.506l-0.874,0.57l-0.457,1.445v0.684l0.19,0.532h0.456l0.608-0.456
		l0.267-0.723l0.228-1.141L76.415,87.506z"/>
	<path id="path4953" sodipodi:nodetypes="ccccc" fill="#D59163" d="M101.314,79.6l1.978-2.32l0.038,3.536l-2.092,2.243L101.314,79.6
		z"/>
	<path id="path4955" sodipodi:nodetypes="ccccc" fill="#D59163" d="M108.348,73.326l2.091-2.395l-0.038,3.535l-2.015,2.242
		L108.348,73.326z"/>
	
		<linearGradient id="path4957_1_" gradientUnits="userSpaceOnUse" x1="77.7578" y1="20.5884" x2="76.8456" y2="21.9136" gradientTransform="matrix(1 0 0 -1 15.1328 104.8145)">
		<stop  offset="0" style="stop-color:#6A3C1D"/>
		<stop  offset="1" style="stop-color:#8F5127"/>
	</linearGradient>
	<path id="path4957" sodipodi:nodetypes="ccccc" fill="url(#path4957_1_)" d="M90.623,84.454l0.068-3.657l3.059,1.154l-0.076,3.074
		L90.623,84.454z"/>
	
		<linearGradient id="path4963_1_" gradientUnits="userSpaceOnUse" x1="24.8794" y1="27.9658" x2="26.7937" y2="25.65" gradientTransform="matrix(1 0 0 -1 71.6235 87.708)">
		<stop  offset="0" style="stop-color:#6A3C1D"/>
		<stop  offset="1" style="stop-color:#8F5127"/>
	</linearGradient>
	<path id="path4963" sodipodi:nodetypes="ccccc" fill="url(#path4963_1_)" d="M95.831,61.911l-0.007-3.429l3.058,1.153l-0.076,3.075
		L95.831,61.911z"/>
	
		<linearGradient id="path4967_1_" gradientUnits="userSpaceOnUse" x1="24.8804" y1="27.9663" x2="26.794" y2="25.6513" gradientTransform="matrix(1 0 0 -1 55.0107 82.3096)">
		<stop  offset="0" style="stop-color:#6A3C1D"/>
		<stop  offset="1" style="stop-color:#8F5127"/>
	</linearGradient>
	<path id="path4967" sodipodi:nodetypes="ccccc" fill="url(#path4967_1_)" d="M79.219,56.513l-0.008-3.429l3.059,1.154l-0.076,3.379
		L79.219,56.513z"/>
	
		<linearGradient id="path4971_1_" gradientUnits="userSpaceOnUse" x1="10.3242" y1="27.6885" x2="12.0349" y2="25.1414" gradientTransform="matrix(1 0 0 -1 66.2251 74.2891)">
		<stop  offset="0" style="stop-color:#BB8F56"/>
		<stop  offset="1" style="stop-color:#D1AF63"/>
	</linearGradient>
	<path id="path4971" sodipodi:nodetypes="ccccc" fill="url(#path4971_1_)" d="M75.294,44.78l3.188,1.284l-0.063,3.438l-3.049-1.246
		L75.294,44.78z"/>
	
		<linearGradient id="path4975_1_" gradientUnits="userSpaceOnUse" x1="10.3247" y1="27.6899" x2="12.0354" y2="25.1429" gradientTransform="matrix(1 0 0 -1 75.0449 77.9766)">
		<stop  offset="0" style="stop-color:#BB8F56"/>
		<stop  offset="1" style="stop-color:#D1AF63"/>
	</linearGradient>
	<path id="path4975" sodipodi:nodetypes="ccccc" fill="url(#path4975_1_)" d="M84.113,48.467l3.188,1.284l-0.063,3.438l-3.049-1.246
		L84.113,48.467z"/>
	<path id="path4983" fill="#D59163" d="M103.634,38.922l-0.418-0.114l-0.608,0.646l-0.494,1.254l0.038,0.875l0.228,0.304
		l0.837-0.342l0.532-0.988l0.113-1.369L103.634,38.922z"/>
	
		<linearGradient id="path4985_1_" gradientUnits="userSpaceOnUse" x1="81.5459" y1="59.5146" x2="83.2186" y2="52.8239" gradientTransform="matrix(1 0 0 -1 15.1328 104.8145)">
		<stop  offset="0" style="stop-color:#6A3C1D"/>
		<stop  offset="1" style="stop-color:#8F5127"/>
	</linearGradient>
	<path id="path4985" fill="url(#path4985_1_)" d="M95.803,40.899l3.117,1.103v12.963L95.765,53.9L95.803,40.899z"/>
	
		<linearGradient id="path4989_1_" gradientUnits="userSpaceOnUse" x1="80.8525" y1="52.686" x2="82.2592" y2="61.6583" gradientTransform="matrix(1 0 0 -1 21.4053 106.0313)">
		<stop  offset="0" style="stop-color:#6A3C1D"/>
		<stop  offset="1" style="stop-color:#8F5127"/>
	</linearGradient>
	<path id="path4989" sodipodi:nodetypes="ccccc" fill="url(#path4989_1_)" d="M102.075,43.826l1.978-2.128l-0.039,11.138
		l-1.977,2.281L102.075,43.826z"/>
	<path id="path4995" fill-opacity="0.1569" d="M120.975,72.234l0.84-0.928l-0.53-2.21l-0.442,0.397l-0.354-2.519l0.221-1.68
		l-0.441-1.546l-0.354,0.221l-0.31-2.166l0.354-1.679l-0.31-1.017l-0.441-0.265l-0.398-2.254l0.045-2.077l-0.354-1.989l-0.31,0.133
		l-0.53-2.475l-0.045-2.386h2.343l-0.221,1.016l1.104,4.243c0,0,0.266,0.972,0.266,1.149c0,0.177-0.177,1.944-0.177,1.944
		l0.707,2.254l0.31,4.729l0.574,0.398l0.266,2.298l-0.089,1.149l1.193,4.817l-0.133,0.397l-2.386,1.944L120.975,72.234z"/>
	<path id="path4997" fill-opacity="0.1569" d="M93.857,36.465l0.063,24.563l6.875,3.063l0.125-24.563L93.857,36.465z"/>
	<path id="path4999" fill-opacity="0.1569" d="M109.857,60.527l-2.375,3.063l6.938,3.938l1.625,5.25l-1.5,5.688l2.125-1.875
		l0.063-1.25l1.563-1l0.25,1.188l1.938-1.625l-3.188-9.688L109.857,60.527z"/>
	<path id="path5003" fill-opacity="0.1569" d="M53.17,29.652v24.313l7.125,2.375l-0.25-23.938L53.17,29.652z"/>
	<path id="path5005" fill-opacity="0.1569" d="M70.42,48.402l-9.875,10.125V57.09l0.5-0.438l-0.75-0.5l4.188-3.625V48.84
		L70.42,48.402z"/>
	<path id="path5009" fill-opacity="0.1569" d="M42.483,58.465l-0.125,6.375l12.313,4.688l-0.063-6.313L42.483,58.465z"/>
	<path id="path5011" fill-opacity="0.1569" d="M42.483,64.902l12.25,4.625l-0.063,5.25l-12.25-4.813L42.483,64.902z"/>
	<path id="path5013" fill-opacity="0.1569" d="M30.858,52.777l0.063,16l6.438,6.25l-0.125,5l0.813,0.438L37.67,56.09L30.858,52.777z
		"/>
	<path id="path5015" fill-opacity="0.1569" d="M54.17,78.902l9.5-11.188l-3.25-1.25l0.125,1.75l-5.875,6.438l-12.438-4.75
		l0.125,6.125l-4.313,4.375l-0.75-0.25v2.063l5.5-5.5l6.438-2.688L54.17,78.902z"/>
	<path id="path5017" fill-opacity="0.1569" d="M21.17,75.402l4.875-1.375l6,6l0.063,4.25l-1.125-0.313l0.125-1.375l-3.188-1.688
		l-0.625,0.875l-2.25-0.938l0.063-1.188L21.67,77.59L21.17,75.402z"/>
	<path id="path5019" fill-opacity="0.1569" d="M56.17,86.277l0.188,7.438l1.5,0.063l0.188,1.125l3.063-0.188l0.75-1.375h4.125
		c0,0,0.125,1.375,0.375,1.375s2.688-0.25,2.688-0.25l0.563-1.438l2.438-0.125l0.063-1.875L56.17,86.277z"/>
	<path id="path5021" fill-opacity="0.1569" d="M68.732,72.652l7.188-1.813l4.5,5.375l0.063,5.375l-11.688-3.563L68.732,72.652z"/>
	<path id="path5025" fill-opacity="0.1569" d="M86.982,76.09l-0.188,7.063l12.313,3.313c0,0,0.938-6.25,0.313-6.438
		s-6.063-6-6.063-6L86.982,76.09z"/>
	<path id="path5027" sodipodi:nodetypes="ccccccccc" fill-opacity="0.1569" d="M80.854,87.19l10.273,2.568l-2.63,3.485l-0.428-1.283
		l-3.425,0.121l-0.918,1.346l-2.629,0.245l-0.184-1.284L80.854,87.19z"/>
	<path id="path5029" fill-opacity="0.1569" d="M56.391,85.906l3.914-4.893l14.861,4.953l-3.059,4.893L56.391,85.906z"/>
	<path id="path5031" fill-opacity="0.1569" d="M68.071,72.818l8.134-7.889l6.666-2.385l-7.217,8.195l-7.277,2.14L68.071,72.818z"/>
	<path id="path5033" sodipodi:nodetypes="cccsc" fill-opacity="0.1569" d="M64.953,54.472l-2.63,5.198l14.004,5.199
		c0,0,7.216-2.263,6.666-2.508S65.014,54.717,64.953,54.472z"/>
	<path id="path5035" fill-opacity="0.1569" d="M21.166,74.775l4.036-4.525l5.688-1.773l-4.832,5.565l-4.77,1.468L21.166,74.775z"/>
	<path id="path5037" sodipodi:nodetypes="ccccc" fill-opacity="0.1569" d="M30.95,52.821l5.32-11.987l1.712,15.35L35.354,54.9
		L30.95,52.821z"/>
	<path id="path5039" fill-opacity="0.1569" d="M93.939,36.309l5.811-11.864l1.039,15.289L93.939,36.309z"/>
	<path id="path5041" fill-opacity="0.1569" d="M58.103,18.085l-5.259,11.436l7.155,3.119L58.103,18.085z"/>
	<path id="path5043" fill-opacity="0.1569" d="M42.692,51.537c0.795,0.367,14.922,5.994,14.922,5.994l-3.058,5.81l-12.17-4.954
		v-6.727L42.692,51.537z"/>
	<path id="path5622" fill-opacity="0.1569" d="M20.052,78.293l3.719,2.162l-0.043,1.081l3.113,1.558l0.086-1.168l2.854,1.34
		l-0.043,1.385l2.681,1.816l0.129-1.645l3.07,1.601l-0.086,1.167l3.114,1.688l0.129-1.125l2.854,1.428l0.086,1.514l2.984,1.21
		l0.043-1.081l2.897,1.384l-0.043,1.47l3.546,1.514v-1.34l2.162,1.037l0.043,19.763l-33.47-16.821L20.052,78.293z"/>
	<path id="path5624" fill-opacity="0.1569" d="M115.619,85.773l1.6-1.34l0.044,12.064l-1.471-0.432L115.619,85.773z"/>
	<path id="path5626" fill-opacity="0.1569" d="M15.468,52.044l0.605,2.897l-0.086,1.859l0.433,3.027l0.302-0.129l0.39,1.816
		l0.043,2.076l0.389,2.378l0.26-0.086l0.432,1.383l-0.346,1.73l0.173,2.119l0.346-0.26l0.563,1.773l-0.26,1.557l0.389,2.291
		l0.433-0.389l0.433,2.508l-0.043,19.33l-4.454-25.989V52.044z"/>
	<path id="path5630" fill-opacity="0.1569" d="M74.107,49.34l-0.063,5.063L89.17,60.34v-5.25L74.107,49.34z"/>
	<path id="path5632" fill-opacity="0.1569" d="M73.92,42.777l0.125,6.5l15.188,5.875v-6.438L73.92,42.777z"/>
	<path id="path5007" fill-opacity="0.1569" d="M52.92,49.527l-9.125,0.5l-1.25,1.25l2.813-0.438l7.813,2.813L52.92,49.527z"/>
	<path id="path5001" fill-opacity="0.1569" d="M73.982,49.84l-4.5,5.25l23,9.5l-0.063,6.188l6.063-5.563l2.438-0.5l0.125-0.813
		l-7.125-2.875l0.063-7.125l-4.625,6.438l-15.313-6L73.982,49.84z"/>
	<path id="path5628" fill-opacity="0.1569" d="M73.881,42.608l3.303-5.688l15.228,5.993l-3.119,5.993L73.881,42.608z"/>
	
		<linearGradient id="path2673_1_" gradientUnits="userSpaceOnUse" x1="86.3848" y1="0.4902" x2="103.3794" y2="25.6146" gradientTransform="matrix(1 0 0 -1 15.1328 104.8145)">
		<stop  offset="0" style="stop-color:#B1B1B1"/>
		<stop  offset="1" style="stop-color:#E4E4E4"/>
	</linearGradient>
	<path id="path2673" fill="url(#path2673_1_)" d="M96.203,112.498l-0.26-19.848l2.984-2.249l-0.043,1.989l2.68-2.249l-0.043-1.557
		l2.465-1.687l0.26,1.643l2.639-2.334l-0.044-1.428l2.249-1.816l0.216,0.995l2.552-1.644l-0.13-1.34l2.205-1.471l0.216,1.6
		l2.854-2.162l-0.173-1.557l1.902-1.471l0.303,1.514l2.595-2.119l-0.173-1.426l2.119-1.601l0.129,19.157l-6.399,5.189l-0.13-12.152
		l-10.768,8.779l-0.086,11.891L96.203,112.498z"/>
	
		<linearGradient id="path2723_1_" gradientUnits="userSpaceOnUse" x1="91.6504" y1="20.5347" x2="91.341" y2="20.9325" gradientTransform="matrix(1 0 0 -1 15.1328 104.8145)">
		<stop  offset="0" style="stop-color:#B1B1B1"/>
		<stop  offset="1" style="stop-color:#E4E4E4"/>
	</linearGradient>
	<path id="path2723" fill="url(#path2723_1_)" d="M91.012,92.918l0.618-1.459l3.978-0.221l2.916-2.121L99.01,90l2.166-1.812
		l-0.177-1.017l2.961-2.254l0.177,1.105l2.475-1.768l-0.088-1.282l2.563-1.944l0.133,1.193l2.387-1.813v-1.193l2.033-1.547
		l0.088,1.105l2.785-2.121l0.265-1.326l1.679-1.017l0.178,1.062l2.475-1.813l0.486,1.68l-2.432,2.254l-0.574-1.68l-1.723,1.414
		l0.043,1.68l-2.607,2.121l-0.396-1.592l-2.254,1.504v1.369l-2.432,1.725l-0.044-1.105l-2.431,1.813l0.045,1.457l-2.608,2.299
		l-0.31-1.502l-2.43,1.723l0.176,1.547l-2.74,2.077v-1.812l-3.093,2.121l-4.772,0.486V92.918z"/>
	<path id="path4993" fill-opacity="0.1569" d="M85.514,29.09l-0.125,9.344l8.438,3.031l-0.031-4.938l0.625-1.406l0.094-1.594
		l-2.844-1.406v1.25l-3.219-1.75l-0.063-0.938L85.514,29.09z M105.357,39.465l-0.156,18.75l11.969,6.031l0.125-19l-1.469-0.625
		l0.063,1.188l-3.656-1.469l0.156-1.5l-2.969-1.375v1.125l-2.844-1.313l-0.094-1.438L105.357,39.465z"/>
	<path id="path5785" fill-opacity="0.1569" d="M117.047,64.109l0.172-18.551l0.52,2.205l-0.13,2.162l0.519,2.768l0.39-0.259
		l0.303,1.946l0.043,2.076l0.26,2.378h0.476l0.346,1.297l-0.26,1.427l0.087,2.508l0.347-0.173l0.475,1.556l-0.172,1.514l0.389,2.552
		l0.432-0.562l0.563,2.421l-0.734,0.778l0.129,1.428l-0.734,0.389L117.047,64.109z"/>
</g>
<g id="layer1" inkscape:label="outline" inkscape:groupmode="layer">
	<path id="path2308" d="M58.295,17.215L52.67,29.402l0.063,0.5l-2.219,0.188l-0.313,1.219l-2.313,0.156l-0.656-1.375l-3.969,0.094
		l-3.156,1.063l0.406,1.5l-1.813,1.563l-0.344-1.188l-1.969,1.406l0.125,1.094l-2.063,1.938l-0.563-1.031l-2.406,1.969l0.031,1.281
		l-1.938,1.688l-0.281-1.188l-2.813,2.188l0.125,1.313l-1.844,1.594l-0.5-0.969l-3.031,2.406l0.156,1.031l-1.625,1.656l-0.656-0.75
		l-3.781,2.969L15.295,71.84l4.313,26.594l33.594,17.031l43.25-2.688l10-7.625l0.094-1.344l2.719-2.219l3.469-2.781l3.188-2.563
		l1.344,0.531l0.063,0.031h0.031l6.531-4.969l0.094-20.125l-0.688-2.75l-0.125-0.563l-0.313-1.344l0.125-1.375l-0.375-2.313
		l-0.344-0.219l-0.25-1.688l-0.094-1.594l-0.094-1.438l-0.688-2.563l0.188-1.375l-0.469-2.469l-0.844-3.125l0.156-1.188
		l-0.563-3.156l-3.219-1.844l-1.094,1.313l-1.469-0.969l0.156-1.406l-3.344-1.719l-1.25,0.906l-1.406-0.469l0.125-1.438
		l-2.531-1.438l0.063-2.813L99.826,24.09l-4.375,8.5l-2.844-1.5l-0.781,0.719l-1.906-0.781l0.094-1.188l-3.906-2.625l-5.438,0.656
		l-0.125,1.219l-2.813,0.25l-0.75-1.375l-4.469,0.594l-0.125,1.281l-2.5,0.281l-0.594-1.406l-4.281,0.375l-0.188,1.469h-0.094
		l-0.25-2.969L58.295,17.215z M58.42,17.902l5.469,10.125l-3.469,3.906L58.42,17.902z M58.077,18.59l1.375,13.594l-6.188-2.781
		L58.077,18.59z M59.483,20.59l-0.188,0.094l1.094,1.813l-0.469,0.375l0.094,0.094l0.438-0.344l0.469,0.781l-0.031-0.125
		l-0.375-0.688l0.219-0.156l-0.063-0.156l-0.219,0.156L59.483,20.59z M57.858,21.027l-1.406,3.656l-0.375-0.125v0.094l0.344,0.125
		l0.156,0.063l1.469,0.563l-0.031-0.156l-1.406-0.5l1.406-3.656L57.858,21.027z M59.577,24.402l0.781,5.375l-0.125,0.156
		l0.125,0.031l1.531-1.656l0.125,0.25l0.094-0.063l-0.125-0.281l0.625-0.688l-0.188-0.094l-0.531,0.594l-0.594-1.219
		c0.204-0.222,0.375-0.438,0.375-0.438l-0.063-0.063c0,0-0.208,0.201-0.375,0.375l-0.25-0.531l-0.063,0.094l0.25,0.531
		c-0.303,0.313-0.666,0.663-0.969,0.938l-0.5-3.313H59.577z M99.951,24.965l5.031,9.813l-3.719,4.031L99.951,24.965z M99.576,25.09
		l1,14.188l-6.188-2.906L99.576,25.09z M55.42,25.309l-0.938,2.188l1.125,0.438l0.031-0.094l-0.969-0.344l0.906-2.031L55.42,25.309z
		 M57.92,25.902l0.188,4.25l-2.906-1.219l0.375-0.875l-0.125-0.125l-0.438,0.906l-1.125-0.469v0.094l1.094,0.469l-0.469,0.938
		l0.188,0.125l0.438-1l2.969,1.281l0.031,0.688l0.125-0.031l-0.031-0.594l0.313,0.125V30.34l-0.313-0.125l-0.188-4.313H57.92z
		 M61.233,26.871l0.594,1.25l-1.344,1.531l-0.25-1.813C60.553,27.555,60.941,27.185,61.233,26.871z M98.982,26.934l-4.125,9.344
		l4.25,1.969l0.094-0.156l-1.031-0.469l0.938-3.25l0.719,0.25l0.031-0.125l-0.688-0.281l0.25-0.875l-0.219,0.031l-0.219,0.781
		l-1.531-0.594l1.25-3.094l-0.125-0.063l-1.281,3.094l-0.938-0.344l2.688-6.156L98.982,26.934z M85.951,27.496l3.719,2.438
		l-1.063,0.563l-3.188-1.781l-3.563,0.281l-0.656-0.906L85.951,27.496z M100.795,28.371l-0.094,0.031
		c0.017,0.178,0.016,0.354,0.031,0.531l-0.156,0.094l0.063,0.125l0.125-0.063c0.191,2.216,0.316,4.398,0.531,6.625l0.219-0.031
		c-0.097-1.075-0.226-2.166-0.344-3.25l0.094,0.031l1.406-0.875l1.125,2.313l-2.406,2.25l0.156,0.063l2.313-2.188l0.313,0.656
		l0.188-0.031l-0.375-0.719l0.156-0.156l-0.125-0.063l-0.094,0.094l-1.219-2.25l0.344-0.219l-0.125-0.125l-1.75,1.156
		c-0.121-1.115-0.215-2.234-0.313-3.344l0.844-0.438l-0.031-0.125l-0.813,0.438C100.842,28.726,100.809,28.547,100.795,28.371z
		 M76.545,28.402l0.625,1.031l-3.438,0.313l-0.656-0.844L76.545,28.402z M81.107,28.527l0.469,0.75l-0.125,0.688l-0.469-0.625
		L81.107,28.527z M64.17,28.621l-0.125,23.906l-3.625,3.219l-0.063-22.813L64.17,28.621z M68.951,29.059l0.594,1.281l-3.188,0.094
		l-0.875-1.094L68.951,29.059z M72.795,29.152l0.625,0.781l-0.031,1.156l-0.688-0.875L72.795,29.152z M85.295,29.152l-0.125,8.969
		l-5.063-1.906l-3.156,0.438l-3.313,6.219l0.188,5.281l-9.188,0.531l0.063-16.406l1.5-0.094l0.219-1.406l3.031-0.219L69.42,32.09
		l4.469-0.219l-0.031-1.594l3.344-0.25l-0.125,1.188l4.969-0.313l0.156-1.5L85.295,29.152z M80.732,29.465l0.656,1l-3.531,0.219
		l-0.063-1.125L80.732,29.465z M85.67,29.465l2.594,1.438l-0.063,1.031l3.563,1.781l0.063-1.219l2.531,1.219l-0.125,1.25l-0.75,1.5
		l0.125,4.813l-7.938-2.969V29.465z M65.357,29.621l0.438,0.813l-0.031,0.844l-0.563-0.719L65.357,29.621z M53.42,30.059l6.188,2.75
		l0.313,23.25l-6.438-2.375L53.42,30.059z M52.733,30.215v1.094l-0.906,0.063l-0.844-1.031L52.733,30.215z M89.732,30.309
		l-0.063,0.594l-0.781,0.438l-0.063-0.563L89.732,30.309z M69.92,30.402h2.625l0.75,1.031l-3.313,0.219L69.92,30.402z
		 M43.358,30.465h3.344l0.563,1.219l-3.469-0.219l-0.313,0.156l-0.125,0.031v0.031l-2.031,1l-0.75-1.313L43.358,30.465z
		 M50.764,30.527l0.656,0.938l-0.219,1.156l-0.719-1.063L50.764,30.527z M64.732,30.777h0.25l0.594,0.906l-0.875,0.094
		L64.732,30.777z M89.795,31.246l1.688,0.875v0.969l-2.563-1.313L89.795,31.246z M92.639,31.371l2.719,1.438l-0.094,0.156
		l-0.781,0.406l-2.531-1.188L92.639,31.371z M50.17,31.621l0.875,1.375h-3.094v-1.125L50.17,31.621z M52.733,31.684l0.094,17.625
		l-8.969,0.531l-0.063-18.031l0.094-0.063l3.563,0.188l-0.219,1.531l4.438-0.063l0.188-1.656L52.733,31.684z M43.358,32.027
		l0.063,18.094l-0.844,0.813l-6-10.5l-0.438,0.125l-5.563,12.344l0.156,9.594l-9.594,9.375l-0.219-1.406l-0.344-0.25l-0.25-1.688
		l-0.094-1.594l-0.094-1.438l-0.688-2.563l0.188-1.375L19.17,59.09l-0.844-3.125l0.156-1.188l-0.406-2.688l1.031-1.031l0.125,1.531
		l3.125-2.688l-0.063-1.531l1.906-1.438l0.281,1.656l2.875-2.813l-0.031-1.531l1.969-1.531l0.063,1.188l2.75-2.125l-0.156-1.344
		l1.938-1.531l0.344,1.844l2.969-2.625l-0.188-1.594l1.563-1.344l0.375,1.781l2.781-2.594l-0.25-1.281L43.358,32.027z M40.92,32.777
		l0.313,1.438l-2.125,2l-0.313-1.656L40.92,32.777z M96.295,33.277l0.938,0.375l-0.344,0.813l0.188,0.063l0.313-0.813l1.563,0.594
		l-0.906,3.25l-3.031-1.344L96.295,33.277z M94.982,33.496l-0.344,0.75v-0.688L94.982,33.496z M38.17,33.652l0.219,1.25
		l-1.406,1.219l-0.063-1.594L38.17,33.652z M54.639,34.152v3.594l3.25,1.344v-3.594L54.639,34.152z M54.795,34.371l2.938,1.25
		l-0.031,3.25l-2.938-1.25L54.795,34.371z M54.858,34.465v3.156l2.813,1.156v-3.125L54.858,34.465z M54.983,34.652l2.594,1.094
		l-0.063,2.844l-2.531-1.094V34.652z M63.233,35.559l-2.125,2.406v3.594l2.125-2.406V35.559z M105.076,35.684l-0.188,23.844
		l-3.875,4.094l0.063-23.656L105.076,35.684z M63.139,35.871l-0.031,3.281l-1.906,2.156v-3.313l1.875-2.031L63.139,35.871z
		 M63.077,35.965l-1.813,2.063v3.156l1.813-2.094V35.965z M36.545,35.996l0.281,2.094l-2.281,1.844l-0.469-1.5l0.25-0.406
		L36.545,35.996z M63.014,36.184l-0.031,2.906l-1.656,1.844V38.09L63.014,36.184z M80.076,36.652l10.563,3.875l2.969,1.063v0.875
		l-1.125,0.25c-4.688-1.747-9.816-3.676-14.656-5.781L80.076,36.652z M90.639,40.527l-0.531,0.25l-1.031-0.406v0.063l0.938,0.406
		l-0.563,0.25l0.094,0.094l0.594-0.281l2.719,1.125l0.094-0.094l-2.719-1.094l0.469-0.219L90.639,40.527z M94.139,36.715
		l6.375,3.156l0.063,23.656l-1.563-0.688l-0.063-3.188l-3.25-1.281l0.063,3.063l-1.563-0.656L94.139,36.715z M79.451,36.871
		l-0.094,0.125l4.938,2.031l-0.594,0.219l0.125,0.063l0.625-0.219l3.531,1.469l0.125-0.094l-3.469-1.438l0.813-0.281l-0.063-0.094
		l-0.906,0.313L79.451,36.871z M77.357,37.027c4.914,1.949,9.631,4.306,14.656,5.938l-2.781,5.531l-14.969-5.875L77.357,37.027z
		 M33.545,37.246l0.25,1.406l-1.75,1.375l-0.125-0.406l-0.031-1L33.545,37.246z M105.576,37.777l2.125,1.313l-1.094,0.625
		l-1.063-0.5L105.576,37.777z M78.232,38.215l-0.656,1.25l-0.344-0.156l-0.063,0.063l0.344,0.156l-1.344,2.5l-0.5-0.219
		l-0.031,0.125l0.469,0.188l-0.219,0.438l0.031,0.094l0.281-0.5l9.438,4l0.094-0.125l-9.469-3.969l1.375-2.469l1.688,0.781
		l-0.531,1.063l0.125,0.094l0.531-1.094l1.125,0.531l0.031-0.125l-1.094-0.5l0.5-1.031l7.063,3.063l-1.531,2.719l2.281,0.781
		l-0.594,1.094l0.094,0.031l0.625-1.094l1.125,0.375l0.125-0.094l-1.188-0.406l0.875-1.594l-0.094-0.094l-0.906,1.656l-2.125-0.719
		l1.375-2.594l1.125,0.469l0.031-0.094l-1.094-0.469l0.313-0.594l-0.063-0.063l-0.344,0.594l-7.063-3.063l0.156-0.281l-0.094-0.063
		l-0.156,0.313l-0.406-0.188l-0.063,0.094l0.406,0.188l-0.5,1l-1.719-0.781l0.688-1.219L78.232,38.215z M103.514,38.527
		c-0.155,0.011-0.329,0.121-0.531,0.219c-0.773,0.669-0.931,1.491-1.094,2.438c0.211,1.218,0.643,0.962,1.094,0.719
		c0.746-0.653,0.9-1.489,1.063-2.406C103.967,38.725,103.773,38.508,103.514,38.527z M103.326,38.871
		c0.26,0.062,0.333,0.626,0.344,0.906c-0.081,0.675-0.28,1.284-0.688,1.719c-0.811,0.716-0.732-0.174-0.688-0.656
		c-0.051-0.722,0.355-1.368,0.719-1.813C103.148,38.904,103.24,38.851,103.326,38.871z M105.545,39.59l0.719,0.375v1.438l3.281,1.5
		l0.031-1.188l2.625,1.25l-0.125,1.5l4,1.719v-1.25l0.906,0.375l-0.063,18.719l-11.469-6L105.545,39.59z M107.67,39.59l-0.063,0.688
		l-0.906,0.5v-0.75l0.031,0.031L107.67,39.59z M31.67,40.059l-0.063,1.688l-1.906,1.406l-0.188-1.25L31.67,40.059z M110.764,40.277
		l2.813,1.469l-1,1l-3.031-1.406L110.764,40.277z M107.732,40.652l1.594,0.781l-0.031,0.75l-2.594-1.063L107.732,40.652z
		 M95.732,40.809v13.125l3.25,1.188V41.965L95.732,40.809z M29.045,40.902l0.219,1.25l-2,1.844l-0.219-0.688l0.031-0.813
		L29.045,40.902z M95.889,41.027l2.938,1.063l-0.031,12.813l-2.938-1.094L95.889,41.027z M95.951,41.09v12.719l2.813,1V42.152
		L95.951,41.09z M36.202,41.246l1.594,14.594l-6.594-3.344L36.202,41.246z M54.639,41.246v3.594l3.25,1.344V42.59L54.639,41.246z
		 M36.514,41.277l5.938,10.125L38.17,55.84L36.514,41.277z M96.076,41.277l2.594,0.969l-0.063,12.375l-2.531-0.938V41.277z
		 M104.107,41.434l-2.125,2.406v11.313l2.125-2.406V41.434z M54.795,41.465l2.938,1.25l-0.031,3.25l-2.938-1.25L54.795,41.465z
		 M54.858,41.559v3.156l2.813,1.156v-3.125L54.858,41.559z M54.983,41.746l2.594,1.094l-0.063,2.844l-2.531-1.094V41.746z
		 M104.014,41.746l-0.031,10.938v0.063l-1.906,2.156l0.031-11.031L104.014,41.746z M103.982,52.684V41.84l-1.844,2.063v10.875
		L103.982,52.684z M103.92,42.027l-0.031,10.656l-1.656,1.844V43.934L103.92,42.027z M113.545,42.277l-0.188,0.844l-0.688,0.906
		l0.063-1.031L113.545,42.277z M93.607,42.715v1.625c-0.194-0.32-0.505-0.18-0.875,0c-0.773,0.669-0.931,1.522-1.094,2.469
		c0.211,1.218,0.643,0.931,1.094,0.688c0.515-0.45,0.758-0.974,0.906-1.563v3.063l-4.25,5.656v-5.5l0.063,0.031l2.938-5.969
		L93.607,42.715z M116.42,43.09l2.813,1.656l0.469,2.656l-1.906,0.281l-0.281-2.406l-1.813-0.906L116.42,43.09z M74.264,43.121
		l14.625,5.844l0.031,6.031l-14.813-6.031L74.264,43.121z M113.795,43.371l1.75,1.094l0.031,1.063l-2.75-1.125L113.795,43.371z
		 M37.545,43.902l1.813,4.75l-1.469,0.969v0.125l1.5-1l0.531,1.344l-0.969,0.813l0.063,0.031l0.938-0.75l0.563,1.469l-1.688,1.594
		v0.094l1.75-1.563l0.219,0.594l0.125-0.031l-0.25-0.656l1.063-0.969l-0.125-0.094l-1,0.938l-0.531-1.438l0.375-0.313l-0.094-0.094
		l-0.344,0.281l-0.5-1.313l0.25-0.188l-0.031-0.063l-0.25,0.156l-1.813-4.688H37.545z M26.827,43.965l0.094,1.75l-2.125,2
		l-0.125-1.469l0.125-0.125l-0.031-0.375L26.827,43.965z M36.42,44.152l-0.125,0.094l-0.031,3.094l0.156,0.063V44.152z
		 M63.358,44.309l-2.125,2.406v3.594l2.125-2.406V44.309z M93.076,44.465c0.26,0.062,0.333,0.657,0.344,0.938
		c-0.081,0.675-0.28,1.253-0.688,1.688c-0.811,0.716-0.732-0.143-0.688-0.625c-0.051-0.722,0.355-1.399,0.719-1.844
		C92.898,44.498,92.99,44.444,93.076,44.465z M63.264,44.621l-0.031,3.281l-1.906,2.156v-3.313l1.875-2.031L63.264,44.621z
		 M63.202,44.715l-1.813,2.063v3.156l1.813-2.094V44.715z M75.232,44.684v3.594l3.25,1.344v-3.594L75.232,44.684z M24.139,44.871
		l0.219,1.25L21.92,48.09l-0.219-0.813l0.031-0.438L24.139,44.871z M75.389,44.902l2.938,1.25l-0.031,3.25l-2.938-1.25
		L75.389,44.902z M63.139,44.934l-0.031,2.906l-1.656,1.844V46.84L63.139,44.934z M75.451,44.996v3.156l2.813,1.156v-3.125
		L75.451,44.996z M75.576,45.184l2.594,1.094l-0.063,2.844l-2.531-1.094V45.184z M35.858,45.527l-1.5,3.906l0.156-0.031l1.438-3.875
		H35.858z M117.357,46.934l0.125,0.844v2.5l0.594,2.781l0.25-0.25l0.219,1.813l0.063,1.781l0.063,0.406l0.406,2.219l0.281,0.031
		l0.188,0.969l-0.125,1.75l0.281,2.469l0.313-0.313l0.375,1.5l-0.156,1.438v0.031l0.438,3.125l0.313-0.594l0.406,1.5l0.125,0.563
		l-0.875,0.688l0.219,1.375l-0.281,0.219l-3.125-9.469l-0.031-0.031L117.357,46.934z M34.264,47.277l-1,2.344l-0.344-0.125v0.125
		l0.313,0.125l-0.625,1.5l-0.281-0.125l-0.031,0.094l0.25,0.125l-0.313,0.781l0.094,0.156l0.375-0.875l3.875,1.906l0.063,0.75
		l0.219,0.063l-0.063-0.688l0.469,0.219l0.063-0.094l-0.531-0.25l-0.188-2.188h0.031l0.063-0.156l-0.094-0.031l-0.063-0.625
		l-0.219,0.063l0.031,0.469l-2.938-1.156l0.969-2.344L34.264,47.277z M119.576,47.809l-0.063,0.938l0.094,0.531l-1.75,0.375
		l-0.063-1.594L119.576,47.809z M21.514,48.059l0.313,1.688l-2.188,1.938v-1.531L21.514,48.059z M84.045,48.34v3.594l3.25,1.344
		v-3.594L84.045,48.34z M73.857,48.465v0.875v0.313l-4.375,5.156l-1.563-0.625l-2.813-0.031l5.438-5.5L73.857,48.465z
		 M84.201,48.559l2.938,1.25l-0.031,3.25l-2.938-1.25L84.201,48.559z M84.264,48.652v3.156l2.813,1.156V49.84L84.264,48.652z
		 M54.452,48.684v3.594l3.25,1.344v-3.594L54.452,48.684z M70.107,48.684l-8.125,8.125l-1.344,1.344l-0.031-1.063l1.375-0.281
		l-1.281-0.469l3.906-3.656l0.031-3.688L70.107,48.684z M84.389,48.84l2.594,1.094l-0.063,2.844l-2.531-1.094V48.84z M54.608,48.902
		l2.938,1.25l-0.031,3.25l-2.938-1.25L54.608,48.902z M54.67,48.996v3.156l2.813,1.156v-3.125L54.67,48.996z M54.795,49.184
		l2.594,1.094l-0.063,2.844l-2.531-1.094V49.184z M18.952,49.434l0.188,1.063l-1.563,1.313l0.031,0.188l0.25,2.469l-1.75,0.281
		l-0.469-2.875L18.952,49.434z M74.264,49.496L88.92,55.34l0.031,4.781l-6.594-2.656v-3.344l-3.25-1.094v3.156l-4.875-1.969
		L74.264,49.496z M93.639,49.496l0.031,4.5l-4.281,5.844v-4.438L93.639,49.496z M119.67,49.652l0.719,2.219l-2.156,0.406
		l-0.344-2.063v-0.281L119.67,49.652z M52.827,49.715l0.031,3.719l-7.375-2.719l-2.469,0.313l0.781-0.75L52.827,49.715z
		 M33.358,49.809l3.031,1.219l0.188,2.156l-3.844-1.875L33.358,49.809z M73.857,50.184v4.281l5.25,2.094v0.063l1.094,0.375
		l9.125,3.625l4.344-6.031l0.031,6.531l6.969,3.094l-2.375,0.813l-5.656,5.25l-0.031-5.188l0.594-0.531l-23.406-9.625L73.857,50.184
		z M45.545,51.152l14.969,5.594l-3.094,0.5c-4.613-1.774-9.442-3.768-14.094-5.719L45.545,51.152z M45.358,51.34l-0.156,0.125
		l3.063,1.219l-0.938,0.281l0.094,0.094l1.031-0.281l7.656,3.063l-0.531,0.063l0.094,0.063l0.594-0.063l1.406,0.563l0.031-0.156
		l-1.094-0.438l0.875-0.094l-0.063-0.094l-0.969,0.125l-7.75-3.125l0.219-0.063l-0.031-0.094l-0.344,0.094L45.358,51.34z
		 M42.639,51.809c4.827,1.902,9.558,4.014,14.469,5.688l-2.563,5.5v0.031l-11.938-5.031L42.639,51.809z M42.264,52.246l-0.188,23.75
		l-0.719,0.813v-3.125l-2.125,2.406v3.094l-0.844,0.938l-0.375-23.594L42.264,52.246z M120.357,52.309l0.438,1.688l-1.813,0.344
		l-0.344-1.781L120.357,52.309z M31.139,53.121l6.313,3.156l0.375,23.844l-0.344-0.156l-0.031-4.719l0.25-0.25l-6.469-6.281
		L31.139,53.121z M43.233,53.121l0.031,0.063l1.531,0.656l-0.531,2.625l-1-0.406l-0.031,0.125l1,0.375l-0.219,1.063l0.063,0.031
		l0.219-1.063l1.563,0.625l-0.281,0.938l0.094,0.094l0.313-0.969l0.563,0.219l0.094-0.063l-0.625-0.25l0.813-2.469l6.625,2.813
		l-0.969,2.063c-0.89-0.384-1.805-0.741-2.719-1.063v0.125c0.866,0.303,1.769,0.664,2.656,1.031l-0.531,1.156l0.094,0.031
		l0.531-1.156c0.513,0.213,1,0.433,1.5,0.656l-0.625,1.344l0.125,0.031l0.594-1.313c0.341,0.153,0.702,0.283,1.031,0.438
		l0.063-0.063c-0.356-0.156-0.708-0.311-1.063-0.469l0.969-2.063l1,0.406l0.063-0.125l-1-0.406l0.094-0.219L55.17,57.84l-0.125,0.25
		l-1.469-0.625l0.344-0.719l-0.094-0.031l-0.344,0.719l-6.625-2.781l0.156-0.531l-0.125-0.094l-0.188,0.563l-1.813-0.781
		l0.094-0.469l-0.094-0.063l-0.094,0.5L43.233,53.121z M15.577,53.246l0.281,1.969l0.031,1.5l0.5,3.406l0.25-0.25l0.219,1.813
		l0.063,1.781l0.063,0.406l0.406,2.219l0.281,0.031l0.188,0.969l-0.125,1.75l0.281,2.469l0.313-0.313l0.375,1.5l-0.156,1.438v0.031
		l0.438,3.125l0.313-0.594l0.406,2l0.094,18.594l-4.063-25.219l-0.188-16.188L15.577,53.246z M79.264,53.246l2.938,1.031
		l-0.031,3.125h-0.031v-3.094l-2.813-0.969v2.906l-0.094-0.031L79.264,53.246z M79.451,53.496l2.594,0.906l-0.063,2.844L80.17,56.59
		l-0.719-0.281V53.496z M44.858,53.871l1.844,0.781l-0.813,2.469l-1.563-0.625L44.858,53.871z M120.701,54.277l-0.063,1.844
		l-1.594,0.375l-0.063-1.906L120.701,54.277z M64.795,54.496l-2.718,5.375l0.219,0.094v5.469l6.468,2.563l-8.562,9.969l37.468,11.5
		l-2.188,1.625l-3.969,0.25l-0.656,1.469l-1.875,0.125l2.438-3.25l-10.406-2.531v-0.938l-9.625-3.563l-5.938-2.188l-5.281,0.031
		l-4.156,5.375l0.063,7.719l-1.875,0.031l-2.563-1.219l-1.094,1.313l-0.875-0.563l6.125-5.688l0.031-6.625l0.375-0.344l-1.719-1.719
		l9.375-11.094l-3.25-1.375l-0.125-3.031l0.313-0.313l-0.125-4.313L64.795,54.496z M65.639,54.559l2.031,0.156l20.156,8.281h0.031
		l3.031,1.25l-7.375-2.125L65.639,54.559z M87.826,62.996l-2.406-0.625l-15.313-6.313l0.406,0.063l0.063-0.094l-0.781-0.094
		l-2.25-0.938l-0.094,0.031l2.094,0.875l-0.688-0.094l0.094,0.063l0.875,0.156l15.031,6.188l-2.344-0.594l0.094,0.094l5.125,1.344
		L87.826,62.996z M17.889,54.871l-0.063,0.938l0.094,0.531l-1.75,0.375l-0.063-1.594L17.889,54.871z M64.951,54.871l17.625,7.531
		l-6.281,2.188L62.67,59.559L64.951,54.871z M66.107,55.996l-0.219,0.469l-0.719-0.313l-0.125,0.063l0.813,0.344l-1.406,3.156
		l0.093,0.031l1.469-3.094l4.75,2.063l-0.656,1.406l-3.25-1.375l-0.125,0.094l3.313,1.406l-0.594,1.25l0.094,0.125l0.656-1.313
		l5.719,2.375l-0.5,1.031l0.125-0.031l0.469-0.938l0.625,0.25l-0.031-0.125l-0.531-0.219l0.656-1.344l1.188,0.531l-0.031-0.156
		l-1.094-0.469l0.438-0.906l-0.094-0.031l-0.438,0.875l-5.719-2.469l0.313-0.625l-0.188-0.063l-0.281,0.625l-4.75-2.094l0.219-0.469
		L66.107,55.996z M120.732,56.527l0.344,1.625l-1.563,0.344l-0.125,0.281l-0.313-2.031L120.732,56.527z M34.42,56.621
		c-0.143,0.004-0.287,0.008-0.406,0.031c-0.838,0.161-1.169,0.749-1.719,1.406c-0.213,0.972-0.167,1.647-0.25,2.469l3.938,1.156
		c0.082-1.18-0.009-2.316-0.25-3.469C35.473,57.31,34.964,56.927,34.42,56.621z M17.983,56.715l0.719,2.219l-2.156,0.406
		l-0.344-2.063v-0.281L17.983,56.715z M33.983,56.809c0.1-0.01,0.204-0.001,0.313,0.031c0.29-0.134,1.151,0.661,1.25,1.406
		c0.057,0.43,0.318,2.535,0.344,3.25l-3.563-1.063c0.04-0.609,0.089-2.125,0.188-2.25C32.769,57.86,33.281,56.878,33.983,56.809z
		 M34.045,56.902c-0.693,0.133-0.952,0.645-1.406,1.188c-0.176,0.804-0.119,1.602-0.188,2.281l3.25,0.969
		c0.068-0.976-0.019-2.204-0.219-3.156c-0.215-0.748-0.675-1.029-1.125-1.281C34.24,56.906,34.144,56.883,34.045,56.902z
		 M34.045,57.059c0.083-0.008,0.161,0.004,0.25,0.031c0.239-0.111,0.95,0.54,1.031,1.156c0.047,0.355,0.26,2.346,0.281,2.938
		l-2.969-0.906c0.033-0.504,0.075-1.959,0.156-2.063C33.006,57.947,33.465,57.116,34.045,57.059z M60.264,57.121l0.25,5.813
		l-5.563,5.969l-0.063-5.406l2.844-5.781L60.264,57.121z M48.358,57.246l-0.625,1.656l0.156,0.063l0.625-1.688L48.358,57.246z
		 M53.514,57.59l1.469,0.625l-0.938,2.094c-0.501-0.223-0.998-0.439-1.5-0.656L53.514,57.59z M58.67,58.152
		c-0.156,0.011-0.33,0.089-0.531,0.188c-0.774,0.669-0.931,1.522-1.094,2.469c0.21,1.218,0.643,0.931,1.094,0.688
		c0.746-0.653,0.9-1.458,1.063-2.375C59.124,58.35,58.93,58.133,58.67,58.152z M105.451,58.402l4.125,2.188l-2.281,3.094
		l7.156,4.125l1.375,5.031l-1.375,5.406l-0.063,0.063l-0.531-1.063l-2.469,1.875l-0.031,1.281l-2,1.625l-0.219-1.219l-2.906,2.094
		l0.094,1.313l-1.906,1.531l-0.469-1l-3.125,2.281l0.125,1.063l-1.781,1.75l-0.719-0.938l-0.531,0.375L60.764,77.902l8.343-9.781
		l2.438,0.969l-4.313,4.219l1.219-0.313v5.188l12.219,3.813l6-5.719l-0.188,7.063l12.875,3.688l12.375-11.094l0.031-6.781
		l0.188-0.156l-7.063-6.219l-3.375,1.156l3.938-4.188V58.402z M58.483,58.465c0.271,0.042,0.333,0.651,0.344,0.938
		c-0.082,0.675-0.281,1.253-0.688,1.688c-0.811,0.716-0.733-0.143-0.688-0.625c-0.051-0.722,0.355-1.399,0.719-1.844
		c0.067-0.062,0.133-0.103,0.188-0.125C58.406,58.477,58.444,58.458,58.483,58.465z M121.389,58.527l0.156,1.094l-1.438,0.344
		l-0.375-1.25L121.389,58.527z M95.857,58.59l2.938,1.188l0.031,3l-0.031-0.031l-0.063-2.938l-2.813-1.125l0.063,2.875l-0.094-0.063
		L95.857,58.59z M70.951,58.777l5.688,2.5l-0.656,1.313l-5.719-2.406L70.951,58.777z M42.608,58.809l11.594,4.656l0.188,5.688
		L42.577,64.59L42.608,58.809z M96.045,58.871l2.594,1.031v2.781l-2.531-1.094L96.045,58.871z M18.67,59.371l0.438,1.688
		l-1.813,0.344l-0.344-1.781L18.67,59.371z M40.577,59.965c-0.072,0.012-0.143,0.059-0.219,0.094
		c-0.08,0.121-0.152,0.223-0.219,0.344c-0.469,0.847-0.662,1.706-0.969,2.813c-0.119,1.146-0.079,1.798-0.125,2.688l2.219-2.063
		c0.046-1.248-0.021-2.327-0.156-3.281C40.999,60.04,40.792,59.929,40.577,59.965z M121.576,60.027l0.094,1.313l-1.844,0.313
		l0.25-1.438L121.576,60.027z M40.639,60.152c0.16,0.037,0.313,0.251,0.344,0.625c0.015,0.177,0.054,0.816,0.094,1.375
		c0.045,0.648,0.117,1.221,0.125,1.594l-2,1.844c0.022-0.643,0.07-2.201,0.125-2.406c0.012-0.047,0.048-0.159,0.063-0.219
		c-0.099,0.948-0.086,1.702-0.125,2.438l1.844-1.688c0.019-0.516-0.007-1.053-0.031-1.563c-0.025-0.51-0.069-1.012-0.125-1.406
		c-0.121-0.572-0.342-0.491-0.594-0.375c-0.066,0.1-0.132,0.181-0.188,0.281c-0.194,0.35-0.323,0.686-0.438,1.063
		c0.12-0.42,0.236-0.846,0.406-1.125c0.056-0.092,0.096-0.163,0.156-0.219c0.041-0.093,0.119-0.156,0.188-0.188
		C40.534,60.16,40.586,60.14,40.639,60.152z M62.92,60.184l12.906,4.719l-3.875,3.781l-9.187-3.375L62.92,60.184z M40.577,60.434
		c0.139,0.023,0.287,0.191,0.313,0.5c0.026,0.317,0.144,2.145,0.156,2.719l-1.656,1.5c0.018-0.531,0.048-2.018,0.094-2.188
		c0.118-0.44,0.363-1.655,0.688-2.188c0.046-0.076,0.075-0.11,0.125-0.156c0.033-0.077,0.1-0.127,0.156-0.156
		C40.494,60.443,40.53,60.426,40.577,60.434z M109.826,60.715l7.125,3.781l3.188,9.563l0.125-0.031l-1.5,1.188l-0.313-1.188
		l-2,1.313l0.063,1.094l-1.594,1.406l1.344-5.031l-1.5-5.344l-7.063-3.875L109.826,60.715z M19.014,61.34l-0.063,1.844l-1.594,0.375
		l-0.063-1.906L19.014,61.34z M46.452,61.371v3.594l3.25,1.344v-3.594L46.452,61.371z M65.357,61.465v3.594l3.25,1.344v-3.594
		L65.357,61.465z M46.608,61.59l2.938,1.25l-0.031,3.25l-2.938-1.25L46.608,61.59z M121.576,61.652l0.219,1.688l-1.5,0.25
		l-0.406,0.031l-0.125-1.656L121.576,61.652z M46.67,61.684v3.156l2.813,1.156v-3.125L46.67,61.684z M65.514,61.684l2.938,1.25
		l-0.031,3.25l-2.938-1.25L65.514,61.684z M65.576,61.777v3.156l2.813,1.156v-3.125L65.576,61.777z M46.795,61.871l2.594,1.094
		l-0.063,2.844l-2.531-1.094V61.871z M65.701,61.965l2.594,1.094l-0.063,2.844l-2.531-1.094V61.965z M83.576,62.559l8.313,2.219
		l-11.5,11.031l-4.344-5.125L83.576,62.559z M82.42,62.84l-6.938,7.781l-6.75,1.906l7.75-7.5L82.42,62.84z M30.733,63.059v5.188
		l-5.813,2.031l-3.656,4.219l-0.094-0.375l0.125-1.375l-0.063-0.406L30.733,63.059z M84.076,63.246l-0.094,0.094l1.219,0.375
		c-0.596,0.484-1.095,1.023-1.594,1.594l-0.625-0.438l-0.125,0.094l0.656,0.438c-0.465,0.533-0.927,1.09-1.438,1.594l-0.625-0.625
		l-0.125,0.094l0.656,0.625c-0.169,0.162-0.348,0.316-0.531,0.469l0.094,0.094c0.184-0.146,0.359-0.306,0.531-0.469l1.188,1.156
		l-3.438,3.125l-1.344-1.594l-0.25,0.063l1.469,1.656l-0.938,0.844l0.031,0.031l0.938-0.844l1.25,1.438l0.156-0.031l-1.281-1.531
		l3.469-3.094l1.219,1.156l0.031-0.125l-1.156-1.125l1.906-1.688l1.906,1.313l-0.875,0.844h0.063l0.938-0.844l0.125-0.031
		l-0.063-0.031l2.781-2.531l0.094,0.031l0.188-0.063l-0.188-0.063l0.125-0.125l-0.188-0.063l-0.125,0.125l-2.344-0.75l0.219-0.188
		l-0.125-0.063l-0.219,0.219l-2.25-0.75c0.104-0.084,0.206-0.172,0.313-0.25l-0.063-0.031c-0.121,0.085-0.229,0.19-0.344,0.281
		L84.076,63.246z M104.67,63.246l6.5,5.813L99.326,79.59l-0.031,0.031l-5.781-5.906L104.67,63.246z M19.045,63.59l0.344,1.625
		l-1.563,0.344l-0.125,0.281l-0.313-2.031L19.045,63.59z M122.232,63.621l0.219,1.406l-1.625,0.344l-0.438-1.469L122.232,63.621z
		 M60.17,63.746l0.031,4.469l-1.094,1.219v-3.25l-2.125,2.406v3.219l-2,2.219l-0.031-4.313L60.17,63.746z M85.264,63.746l2.25,0.75
		l-2.188,1.969l-1.594-1.094C84.227,64.797,84.709,64.223,85.264,63.746z M103.514,63.84l-10.625,9.75l-5.406,2.094l11.094-10.125
		L103.514,63.84z M79.576,64.184l-2,2.25l-1.813,0.219l-3.219,3.219l-1.125,0.281v0.094l0.969-0.25l-0.844,0.844l0.156,0.094
		l0.969-1l2.563-0.625l2.438-2.813l1.469-0.188l-0.031-0.063l-1.344,0.156l1.906-2.188L79.576,64.184z M104.764,64.402l-0.563,0.563
		l-0.281-0.25l0.031,0.219l0.125,0.125l-2.875,2.781l-0.188-0.188l-0.094,0.031l0.219,0.219l-1.438,1.375l0.156,0.094l1.406-1.344
		l1,1l-3.156,3.031l0.156,0.125l3.125-3.031l2.25,2.25l0.031-0.094l-2.219-2.219l1.75-1.719l-0.063-0.156l-1.813,1.75l-1-1
		l2.906-2.781l2.719,2.469l-1.438,1.438l0.156,0.094l1.406-1.406l2.094,1.906l-2.906,2.781l0.125,0.063l3-2.813l-2.219-2.031
		l0.906-0.875l-0.094-0.188l-0.938,0.938l-2.719-2.469l0.625-0.594L104.764,64.402z M87.67,64.527l2.344,0.75l-2.656,2.531
		l-1.938-1.281L87.67,64.527z M34.42,64.871c-0.143,0.004-0.287,0.008-0.406,0.031c-0.838,0.161-1.169,0.749-1.719,1.406
		c-0.213,0.973-0.167,1.647-0.25,2.469l3.938,1.156c0.082-1.18-0.009-2.316-0.25-3.469C35.473,65.561,34.964,65.177,34.42,64.871z
		 M33.983,65.059c0.1-0.01,0.204-0.002,0.313,0.031c0.29-0.134,1.151,0.66,1.25,1.406c0.057,0.43,0.318,2.535,0.344,3.25
		l-3.563-1.063c0.04-0.609,0.089-2.125,0.188-2.25C32.769,66.109,33.281,65.129,33.983,65.059z M34.045,65.152
		c-0.693,0.133-0.952,0.645-1.406,1.188c-0.176,0.804-0.119,1.602-0.188,2.281l3.25,0.969c0.068-0.976-0.019-2.203-0.219-3.156
		c-0.215-0.748-0.675-1.029-1.125-1.281C34.24,65.156,34.144,65.133,34.045,65.152z M42.577,65.184l11.813,4.688l0.156,4.438
		l-12-4.5L42.577,65.184z M34.045,65.309c0.083-0.008,0.161,0.004,0.25,0.031c0.239-0.111,0.95,0.54,1.031,1.156
		c0.047,0.355,0.26,2.346,0.281,2.938l-2.969-0.906c0.033-0.504,0.075-1.959,0.156-2.063C33.006,66.197,33.465,65.366,34.045,65.309
		z M122.514,65.434l0.031,0.188l-0.094,1.031l-1.844,0.438l0.219-1.406L122.514,65.434z M83.607,65.496l1.625,1.063l-1.875,1.688
		l-1.156-1.156C82.697,66.605,83.145,66.035,83.607,65.496z M92.17,65.496l0.094,5.031L80.889,80.934l-0.25-4.875L92.17,65.496z
		 M19.702,65.59l0.156,1.094l-1.438,0.344l-0.375-1.25L19.702,65.59z M100.545,65.746l-2.281,2.25l-1.531,0.188l0.594-0.563
		l-0.156-0.094l-0.719,0.688l-0.656,0.094l0.625-0.063l-1.469,1.438l-1.125,0.344l-0.031,0.063l1-0.25l-2.938,2.875l-1.219,0.438
		l-0.031,0.125l1.125-0.406l-0.75,0.719l0.031,0.063l0.906-0.844l1.563-0.594v-0.063l-1.438,0.5l3.031-2.875l1.25-0.313
		l-0.063-0.156l-1.031,0.313l1.469-1.406l1.438-0.125l-0.406,0.406l0.156,0.094l0.563-0.531l0.438-0.031v-0.125l-0.313,0.031
		l2.125-2.031L100.545,65.746z M59.014,66.496l-0.031,3.063l-0.031,0.063V66.59l-1.813,2.063v2.969l-0.063,0.063v-3.063l1.875-2.031
		L59.014,66.496z M77.482,66.527l-2.375,2.656l-2.281,0.594l3-3.031L77.482,66.527z M60.639,66.559l2.75,1.188l-9.125,10.813
		l-4.813-4.844l-6.75,2.844l-5.219,5.125v-1.219l0.656,0.375l1.094-1.156l0.125-0.125l3.156-3.375l0.031-5.906l12.156,4.844l6-6.75
		L60.639,66.559z M58.889,66.809l-0.031,2.906l-1.656,1.844v-2.844L58.889,66.809z M19.889,67.09l0.094,1.313l-1.844,0.313
		l0.25-1.438L19.889,67.09z M122.451,67.09l0.25,1.313l-1.719,0.313l-0.375-1.375L122.451,67.09z M19.889,68.715l0.219,1.688
		l-1.5,0.25l-0.406,0.031l-0.125-1.656L19.889,68.715z M30.202,68.809l-4.063,4.75l-4.563,1.594l-0.188-0.156l3.625-4.25
		L30.202,68.809z M30.764,68.809l6.094,6.219l-4.625,4.688l-5.75-5.906L30.764,68.809z M122.764,68.902l0.906,2.938l-2.219,1.844
		l-0.344-1.406l0.969-0.938l-0.719-2.25L122.764,68.902z M111.076,69.777l0.031,5.906L99.701,85.902l-0.156-5.75L111.076,69.777z
		 M27.577,69.84l-0.719,0.969l-1.156,0.438l0.188-0.25l-0.188-0.031L25.42,71.34l-1.188,0.469l-0.031,0.125l1.094-0.375
		l-1.375,1.906l-1.063,0.25l0.063,0.188l0.844-0.219l-0.219,0.313h0.094l0.281-0.344l1.125-0.313l-0.031-0.156l-0.938,0.219
		l1.469-1.938l1.188-0.438l-1.406,1.906l0.219,0.063l1.438-2.063l1.25-0.469l-0.094-0.125l-1.031,0.375l0.594-0.844L27.577,69.84z
		 M31.42,69.965l-0.688,0.688l-0.594-0.594l-0.094,0.094l0.594,0.625l-1.188,1.219l0.156,0.125l1.125-1.25l2.219,2.281l0.156-0.125
		l-2.25-2.25l0.625-0.719L31.42,69.965z M20.545,70.684l0.219,1.406l-1.625,0.344l-0.438-1.469L20.545,70.684z M110.482,70.809
		l-2.125,2.406v3.594l2.125-2.406V70.809z M103.139,70.902l-3.938,3.719l-1.594-1.469l-0.156,0.063l1.625,1.531l-0.5,0.469
		l0.094,0.125l0.531-0.5l1.188,1.125l-2,1.875l0.156,0.063l1.969-1.813l0.938,0.875l0.156-0.094l-0.969-0.906l2.469-2.313
		l-0.094-0.125l-2.5,2.344l-1.219-1.125l3.969-3.719L103.139,70.902z M75.607,71.059l4.563,5.313l0.156,4.875L75.67,79.84v-3.031
		l-3.25-1.094v3.125l-3.406-1.031l0.188-5.031L75.607,71.059z M110.389,71.121l-0.031,3.281l-1.906,2.156v-3.313l1.875-2.031
		L110.389,71.121z M110.326,71.215l-1.813,2.063v3.156l1.813-2.094V71.215z M110.264,71.434l-0.031,2.906l-1.656,1.844V73.34
		L110.264,71.434z M74.92,71.746c-0.471,0.002-0.49,0.391-0.531,0.844c0.357,0.986,0.739,1.135,1.156,1.313
		c0.66,0.125,0.701-0.314,0.75-0.813c-0.273-0.932-0.623-1.08-1.125-1.313C75.084,71.76,74.987,71.746,74.92,71.746z M75.232,71.965
		c0.475,0.077,0.69,0.768,0.75,1.031c0.002,0.396-0.149,0.641-0.5,0.625c-0.717-0.132-0.735-0.645-0.75-0.938
		C74.594,72.154,74.927,71.99,75.232,71.965z M20.827,72.496l0.031,0.188l-0.094,1.031l-1.844,0.438l0.219-1.406L20.827,72.496z
		 M123.17,72.715l0.156,18.875l-6,4.594v-12l-11.219,9.031l0.031,11.625l-9.781,7.344l-0.063-19.563l2.469-1.844l-0.156,1.969
		l3.219-2.563v-1.531l1.969-1.375l0.219,1.656l2.969-2.688l0.031-1.531l2.031-1.469l0.031,1.188l2.813-2l-0.094-1.344l1.969-1.469
		l0.281,1.844l3.063-2.5l-0.125-1.594l1.625-1.281l0.313,1.781l2.875-2.469l-0.219-1.313L123.17,72.715z M31.702,73.09l-0.031,0.094
		l1.656,1.625l-1.375,1.313l-2.781-3l-0.125,0.063l2.875,3.031l1.469-1.344l1.094,1.063l-2.281,2.281L27.67,73.59l-0.156,0.094
		l4.688,4.656l2.344-2.344l0.563,0.531l0.094-0.063l-0.563-0.563l0.75-0.75l-0.094-0.063l-0.75,0.75l-1.063-1.031l0.313-0.313
		l-0.094-0.063l-0.313,0.281L31.702,73.09z M121.045,73.777l0.25,1.406l-2.188,1.938l-0.25-1.656L121.045,73.777z M41.264,73.996
		l-0.031,2.938l-0.031,0.031V74.09l-1.813,2.063v2.844l-0.063,0.063v-2.938l1.875-2.031L41.264,73.996z M20.764,74.152l0.25,1.313
		l-1.719,0.313l-0.375-1.375L20.764,74.152z M92.982,74.152l5.844,5.906l0.063,6.344l-5.031-1.469v-3.125l-3.25-1.094v3.25
		l-3.625-1.063l0.125-6.531L92.982,74.152z M41.139,74.309l-0.031,2.781l-1.656,1.844v-2.719L41.139,74.309z M25.983,74.34
		l5.656,5.719l0.063,4.031l-0.594-0.25l0.031-1.344l-3.281-1.719l-0.781,0.719l-1.906-0.781l0.094-1.188l-0.688-0.406l2.844,0.969
		v-3.594l-3.25-1.094v3.5l-2.25-1.281l-0.375-2.125L25.983,74.34z M49.483,74.527l5.906,5.938c-3.253,2.943-6.497,6.092-9.75,8.844
		l-1.156,1.031l-0.563-0.063l-0.656-0.188c-0.004-0.008,0.003-0.023,0-0.031c-0.008-0.02-0.025-0.042-0.031-0.063l0.125-1.375
		l-0.188-0.094l-3.219-1.813l-0.031,0.031h-0.031l-1.75-1.813L49.483,74.527z M118.264,74.527l0.156,1.281l-1.438,1.156v-1.594
		L118.264,74.527z M48.452,74.777l-10.719,9.719l-1.281,0.563l-1.188-0.688l7.75-7.406L48.452,74.777z M49.327,75.371l-4.75,4.313
		l-0.219-0.219l-0.125,0.031l0.25,0.281l-0.938,0.844l0.125,0.063l0.906-0.844l2.563,2.656l-2.375,2.125l-1.875-1.906l-0.125,0.031
		l1.906,1.969l-2.125,1.938l-2.656-2.594l-0.094,0.094l2.656,2.594l-0.5,0.438l0.063,0.156l0.531-0.5l1.75,1.688l8.938-7.938
		l-0.094-0.063l-8.844,7.813l-1.625-1.594l2.094-1.938l1.188,1.219l0.125-0.063l-1.219-1.25l2.344-2.156l1,1.031l4.875-4.344
		l0.375,0.406l0.125-0.063l-0.406-0.406l0.156-0.156l-0.063-0.094l-0.188,0.156L49.327,75.371z M49.327,75.496l3.656,3.688
		l-4.75,4.156l-0.906-0.906l1.375-1.281L48.67,81.09l-1.406,1.281l-2.594-2.594L49.327,75.496z M24.327,75.621l2.938,1.031
		l-0.031,3.25l-2.938-1.031L24.327,75.621z M24.389,75.715v3.156l2.813,0.938v-3.125L24.389,75.715z M36.889,75.84l0.094,5.875
		l-2.313,2.406l-0.594-0.344l-1.281,0.781l-0.469-0.188l0.063-3.875L36.889,75.84z M24.514,75.871l2.594,0.906l-0.063,2.844
		l-2.531-0.906V75.871z M72.576,75.934l2.938,1.031l-0.031,2.813h-0.031v-2.781l-2.813-0.969v2.875l-0.094-0.031L72.576,75.934z
		 M21.077,75.965l0.594,1.813l3.25,1.844l-1.063,0.563l-3.75-1.969l-0.438-2.063L21.077,75.965z M72.764,76.184l2.594,0.906
		l-0.063,2.625l-2.531-0.781V76.184z M45.295,76.621l-0.625,0.594l-1.625,0.406l0.188-0.156L43.17,77.34l-0.375,0.375l-0.531,0.125
		l-0.156,0.094l0.594-0.125l-3.719,3.563h-0.25l-0.125,0.156h0.219l-2.406,2.344l0.188,0.063l2.469-2.406l1.656,0.031v-0.125
		l-1.531-0.063l3.75-3.625l1.563-0.344l-1.563,1.531l0.125,0.094l1.719-1.688l0.406-0.094l0.031-0.156l-0.25,0.063l0.5-0.5
		L45.295,76.621z M116.545,76.809l0.188,2.125l-2.344,1.75l-0.375-1.531l0.281-0.375L116.545,76.809z M103.357,77.184l-2.125,2.406
		v3.594l2.125-2.406V77.184z M103.264,77.496l-0.031,3.281l-1.906,2.156v-3.313l1.875-2.031L103.264,77.496z M103.201,77.59
		l-1.813,2.063v3.156l1.813-2.094V77.59z M103.139,77.809l-0.031,2.906l-1.656,1.844v-2.844L103.139,77.809z M113.514,77.965
		l0.188,1.406l-1.813,1.313l-0.094-0.406v-1L113.514,77.965z M20.233,78.777l3.281,1.813l-0.063,1.031l3.563,1.781l0.063-1.219
		l2.531,1.219l-0.125,1.438l2.969,1.938l0.156-1.75l2.813,1.438l-0.188,1.219l3.563,1.844l0.125-1.25l2.594,1.375v1.438l3.281,1.5
		l0.031-1.188l2.625,1.25l-0.125,1.5l4,1.719v-1.25l1.813,0.781v19.344L20.202,98.309L20.233,78.777z M24.983,79.996L24.92,80.59
		l-0.781,0.438l-0.063-0.563L24.983,79.996z M111.514,80.684l-0.125,1.688l-1.969,1.344l-0.125-1.281L111.514,80.684z
		 M25.045,80.934l1.688,0.875v0.969l-2.563-1.313L25.045,80.934z M90.764,80.934l2.938,1.031l-0.031,2.906h-0.031v-2.875
		l-2.813-0.969v3l-0.094-0.031L90.764,80.934z M65.357,80.996l13.688,4.781c-0.281,0.045-2.902-0.188-3.656-0.125l-13.875-4.5
		L65.357,80.996z M27.889,81.059l2.813,1.5l-0.969,0.5l-2.531-1.188L27.889,81.059z M60.577,81.184l14.093,4.969
		c-0.832,1.238-1.951,2.885-2.938,4.406l-14.718-4.625L60.577,81.184z M90.951,81.184l2.594,0.906l-0.063,2.719l-1.875-0.563
		l-0.656-0.219V81.184z M55.233,81.402l0.188,5.656l-6,5.906l-0.344-0.219l0.156-1.406l-3.125-1.625L55.233,81.402z M64.264,81.434
		l-0.125,0.094l2.562,1.063l1.031-0.563l-0.125-0.125l-0.938,0.563L64.264,81.434z M108.857,81.434l0.188,1.25l-2.094,1.781
		l-0.188-0.688l0.063-0.813L108.857,81.434z M61.045,81.777l-1.5,2.156l-0.5-0.188l-0.063,0.063l0.5,0.219l-0.938,1.344
		l-0.438-0.156l-0.094,0.031l0.5,0.188l-0.156,0.219l0.156,0.063l0.156-0.219l1.25,0.469l-0.188,0.281l0.125,0.031l0.188-0.281
		l3.406,1.25l0.063-0.063l-3.438-1.25l0.875-1.313l0.688,0.281l-0.594,0.844h0.188l0.563-0.781l5.343,2.156l-0.969,1.375
		l0.094,0.063l1-1.375l0.969,0.375l0.063-0.125l-0.938-0.375l1.313-1.813l2.625,0.875l-0.719,1.188l-0.844-0.25v0.156l0.75,0.219
		l-0.719,1.156l0.125,0.094l0.75-1.219l0.969,0.281l-1.094,1.688l0.125,0.094l1.094-1.719l1.313,0.375l0.125-0.125l-1.344-0.406
		l0.781-1.219l-1.094-0.344l0.094-0.188l-0.125-0.063l-0.125,0.188l-2.813-0.906l-1.313,1.875l-5.375-2.125l1.188-1.656
		l-0.125-0.094l-1.219,1.688l-0.688-0.281l1.313-1.969l-0.125-0.063l-1.313,2l-1.219-0.5l1.469-2.125L61.045,81.777z M68.514,82.371
		l-0.813,0.531v0.125l0.813-0.438l1.188,0.531l0.594-0.344l-0.094-0.063l-0.563,0.281L68.514,82.371z M30.764,82.902l0.063,0.906
		l-0.938,0.5l-0.031-0.969l0.031,0.031L30.764,82.902z M70.607,83.684l-0.031,0.125l4.813,1.625l0.125-0.063L70.607,83.684z
		 M34.077,84.027l2.813,1.563l-1.094,0.625l-3.031-1.469L34.077,84.027z M59.639,84.059l1.188,0.5l-0.875,1.344l-1.25-0.469
		L59.639,84.059z M31.045,84.09l1.344,0.594l-0.125,1.438l-2.281-1.469L31.045,84.09z M106.514,84.402l0.031,1.75l-2.188,1.938
		l-0.063-1.469l0.125-0.125l-0.031-0.375L106.514,84.402z M52.608,84.559l-2.125,2.406v3.594l2.125-2.406V84.559z M117.076,84.715
		v11.656l-0.031,0.031l-1.125-0.438V85.684L117.076,84.715z M52.514,84.871l-0.031,3.281l-1.906,2.156v-3.313l1.875-2.031
		L52.514,84.871z M52.452,84.965l-1.813,2.063v3.156l1.813-2.094V84.965z M52.389,85.184l-0.031,2.906l-1.656,1.844V87.09
		L52.389,85.184z M103.795,85.215l0.188,1.25l-2.5,1.875l-0.188-0.813l0.031-0.438L103.795,85.215z M37.608,85.309l1.75,1.906
		l-0.531,0.469l-1.656-0.531l0.156-1.5l-0.219-0.125L37.608,85.309z M75.139,85.965c1.568,0.329,3.723,0.289,5.344,0.688
		l-0.031,5.531l-3.625,0.344l-0.531,1.281l-2.375,0.313l-0.188-1.438l-1.281,0.063l-0.125-1.469
		C73.229,89.458,74.344,87.17,75.139,85.965z M115.545,85.965l0.031,0.813l-1.125,0.906v-0.813L115.545,85.965z M36.889,86.059
		l-0.156,0.938l-0.969,0.5h-0.031l0.063-1.031l0.094,0.094L36.889,86.059z M71.451,86.152l1,0.344l-0.75,1.125l-1-0.281
		L71.451,86.152z M56.514,86.402l15.25,4.938v1.438l-2.313,0.094l-0.594,1.469l-2.5,0.063l-0.125-1.281h-4.468l-0.75,1.469
		l-2.813,0.125l-0.125-1.188l-1.375,0.031L56.514,86.402z M115.576,86.934l0.031,2.313l-1.156,0.969v-2.344L115.576,86.934z
		 M114.326,86.965v0.844l-1.594,1.313v-0.844L114.326,86.965z M40.202,87.09l2.75,1.688l-1.094,0.625l-2.938-1.406L40.202,87.09z
		 M37.014,87.277l1.625,0.75l-0.063,0.906l-2.438-1.219L37.014,87.277z M81.014,87.34l9.844,2.406l-2.313,3.219l-0.313-1.188
		l-3.969,0.156l-0.938,1.469l-2.063,0.094l-0.063-1.375h-0.125L81.014,87.34z M76.514,87.371c-0.155,0.012-0.36,0.121-0.563,0.219
		c-0.773,0.669-0.931,1.49-1.094,2.438c0.211,1.219,0.643,0.963,1.094,0.719c0.746-0.653,0.9-1.488,1.063-2.406
		C76.936,87.568,76.773,87.352,76.514,87.371z M76.326,87.715c0.26,0.062,0.302,0.657,0.313,0.938
		c-0.081,0.675-0.28,1.253-0.688,1.688c-0.811,0.717-0.732-0.143-0.688-0.625c-0.051-0.723,0.355-1.399,0.719-1.844
		C76.117,87.748,76.24,87.694,76.326,87.715z M114.326,87.965v2.344l-1.594,1.344v-2.344L114.326,87.965z M101.076,88.309
		l0.25,1.688l-2.281,1.844l0.094-1.406L101.076,88.309z M112.607,88.371v0.844l-1.5,1.25v-0.844L112.607,88.371z M42.92,89.277
		l-0.063,0.688l-0.906,0.5v-0.75l0.031,0.031L42.92,89.277z M112.607,89.402v2.344l-1.5,1.25v-2.344L112.607,89.402z
		 M115.607,89.402l0.031,2.031l-1.188,1V90.34L115.607,89.402z M98.451,89.59l0.469,0.563l-3.125,2.344l-4.313,0.469l0.563-1.313
		l3.531-0.25L98.451,89.59z M111.014,89.684v0.875l-1.719,1.438v-0.875L111.014,89.684z M46.014,89.965l2.813,1.469l-1,1
		l-3.031-1.406l0.063-0.063L46.014,89.965z M42.952,90.371l0.25,0.094l1.375,0.656l-0.031,0.75l-2.594-1.063L42.952,90.371z
		 M114.326,90.465v2.063l-1.594,1.344v-2.094L114.326,90.465z M111.014,90.715v2.375l-1.719,1.406v-2.344L111.014,90.715z
		 M109.17,91.215v0.875l-1.594,1.313v-0.875L109.17,91.215z M115.639,91.59l0.031,2.063l-1.219,1v-2.094L115.639,91.59z
		 M112.607,91.871v2.094l-1.5,1.25v-2.094L112.607,91.871z M48.795,91.965l-0.188,0.844l-0.688,0.906l0.063-1.031L48.795,91.965z
		 M87.764,92.09l-0.844,1.156l-2.938,0.219l0.719-1.188L87.764,92.09z M87.982,92.246l0.281,1l-0.719,1.156l-0.219-1.125
		L87.982,92.246z M109.17,92.246v2.375l-1.594,1.313V93.59L109.17,92.246z M80.795,92.527l-0.813,1.313l-3.438,0.188l0.625-1.313
		L80.795,92.527z M107.451,92.621v0.906l-0.875,0.719V93.34L107.451,92.621z M114.326,92.684v2.094l-1.594,1.313v-2.094
		L114.326,92.684z M51.67,92.777l2.313,1.156l3.563-0.125l-0.656,1l-3.531,0.25l-2.406-1L51.67,92.777z M73.264,92.996l-0.875,1.25
		l-3.188,0.281l0.594-1.344L73.264,92.996z M95.857,93.027l0.094,19.406l0.031,0.031l-42.406,2.438l-0.063-19.5l3.031-0.156
		l0.156,1.469l4.969-0.313l-0.125-1.188l3.343-0.188l-0.031,1.594l4.469-0.375l-0.031-1.5l3.031-0.188l0.219,1.375l4.25-0.281
		l-0.188-1.344l3.219-0.125l0.125,1.5l3.688-0.406l0.031-1.5l3.219-0.156l0.188,1.625l4.438-0.531l-0.219-1.5L95.857,93.027z
		 M49.045,93.059l1.75,1.094l0.031,1.063l-2.75-1.125L49.045,93.059z M80.857,93.059l0.25,0.813l-0.625,0.844l-0.063-0.969
		L80.857,93.059z M90.795,93.215v1.125l-3.094,0.406l0.875-1.469L90.795,93.215z M111.014,93.215v2.094l-1.719,1.406v-2.063
		L111.014,93.215z M73.389,93.246l0.156,0.938l-0.563,0.781l-0.031-0.844L73.389,93.246z M62.202,93.496l3.468,0.063l-0.656,0.938
		l-3.437,0.125L62.202,93.496z M83.232,93.684l-0.031,1.25l-2.594,0.219l0.656-1.313L83.232,93.684z M107.451,93.684v2.344
		l-0.906,0.781l0.031-2.375L107.451,93.684z M65.951,93.777l0.094,1.031l-0.688,0.969l-0.031-1.156L65.951,93.777z M115.67,93.809
		l0.031,2.219l-1.25,1V94.84L115.67,93.809z M112.607,94.09v2.094l-1.5,1.25V95.34L112.607,94.09z M76.045,94.152l0.094,1.125
		l-2.906,0.219l0.531-1.125L76.045,94.152z M57.639,94.246l0.125,0.781l-0.469,0.688l-0.125-0.688L57.639,94.246z M68.826,94.652
		l-0.063,1.25l-3.344,0.219l0.781-1.125L68.826,94.652z M109.17,94.746v2.094l-1.594,1.313v-2.094L109.17,94.746z M60.952,94.84
		l-0.063,1.125l-3.531,0.25l0.656-1.094L60.952,94.84z M114.326,94.934v2.219l-1.594,1.281v-2.156L114.326,94.934z M111.014,95.434
		v2.094l-1.719,1.438v-2.094L111.014,95.434z M107.451,96.184v2.063l-0.938,0.813v-2.125L107.451,96.184z M112.607,96.371v2.156
		l-1.5,1.188v-2.094L112.607,96.371z M109.17,96.965v2.094l-1.594,1.344v-2.094L109.17,96.965z M111.014,97.715l-0.031,2.125
		l-1.719,1.375l0.031-2.094L111.014,97.715z M107.451,98.402v2.094l-0.969,0.813v-2.125L107.451,98.402z M109.17,99.246
		l-0.031,2.063l-1.594,1.281v-2.031L109.17,99.246z M107.42,100.652v2.031l-1,0.813l0.031-2.031L107.42,100.652z"/>
</g>
</svg>
